<?xml version="1.0" encoding="UTF-8" standalone="no"?>
<!DOCTYPE svg PUBLIC "-//W3C//DTD SVG 1.1//EN"
 "http://www.w3.org/Graphics/SVG/1.1/DTD/svg11.dtd">
<!-- Generated by graphviz version 5.0.0 (20220707.1540)
 -->
<!-- Title: dependencies Pages: 1 -->
<svg width="386pt" height="247pt"
 viewBox="0.00 0.00 386.00 246.80" xmlns="http://www.w3.org/2000/svg" xmlns:xlink="http://www.w3.org/1999/xlink">
<g id="graph0" class="graph" transform="scale(1 1) rotate(0) translate(4 242.8)">
<title>dependencies</title>
<polygon fill="white" stroke="transparent" points="-4,4 -4,-242.8 382,-242.8 382,4 -4,4"/>
<text text-anchor="middle" x="189" y="-8.2" font-family="sans-serif" font-size="14.00">dependencies</text>
<g id="clust1" class="cluster">
<title>cluster_HealthChecksModule</title>
<polygon fill="none" stroke="black" stroke-dasharray="1,5" points="8,-32.8 8,-230.8 370,-230.8 370,-32.8 8,-32.8"/>
</g>
<g id="clust4" class="cluster">
<title>cluster_HealthChecksModule_exports</title>
<polygon fill="none" stroke="black" points="91,-170.8 91,-222.8 259,-222.8 259,-170.8 91,-170.8"/>
</g>
<g id="clust6" class="cluster">
<title>cluster_HealthChecksModule_providers</title>
<polygon fill="none" stroke="black" points="140,-40.8 140,-92.8 362,-92.8 362,-40.8 140,-40.8"/>
</g>
<g id="clust3" class="cluster">
<title>cluster_HealthChecksModule_imports</title>
<polygon fill="none" stroke="black" points="16,-40.8 16,-92.8 132,-92.8 132,-40.8 16,-40.8"/>
</g>
<!-- ClientsModule -->
<g id="node1" class="node">
<title>ClientsModule</title>
<polygon fill="#8dd3c7" stroke="black" points="123.72,-84.8 120.72,-88.8 99.72,-88.8 96.72,-84.8 24.28,-84.8 24.28,-48.8 123.72,-48.8 123.72,-84.8"/>
<text text-anchor="middle" x="74" y="-62.6" font-family="Times,serif" font-size="14.00">ClientsModule</text>
</g>
<!-- HealthChecksModule -->
<g id="node2" class="node">
<title>HealthChecksModule</title>
<polygon fill="#8dd3c7" stroke="black" points="244.08,-149.8 241.08,-153.8 220.08,-153.8 217.08,-149.8 105.92,-149.8 105.92,-113.8 244.08,-113.8 244.08,-149.8"/>
<text text-anchor="middle" x="175" y="-127.6" font-family="Times,serif" font-size="14.00">HealthChecksModule</text>
</g>
<!-- ClientsModule&#45;&gt;HealthChecksModule -->
<g id="edge1" class="edge">
<title>ClientsModule&#45;&gt;HealthChecksModule</title>
<path fill="none" stroke="black" d="M114.78,-84.91C114.78,-84.91 114.78,-103.79 114.78,-103.79"/>
<polygon fill="black" stroke="black" points="111.28,-103.79 114.78,-113.79 118.28,-103.79 111.28,-103.79"/>
</g>
<!-- UsersGrpcHealthCheck  -->
<g id="node3" class="node">
<title>UsersGrpcHealthCheck </title>
<polygon fill="#fb8072" stroke="black" points="251.45,-214.8 98.55,-214.8 98.55,-178.8 251.45,-178.8 251.45,-214.8"/>
<text text-anchor="middle" x="175" y="-192.6" font-family="Times,serif" font-size="14.00">UsersGrpcHealthCheck </text>
</g>
<!-- HealthChecksModule&#45;&gt;UsersGrpcHealthCheck  -->
<g id="edge2" class="edge">
<title>HealthChecksModule&#45;&gt;UsersGrpcHealthCheck </title>
<path fill="none" stroke="black" stroke-dasharray="5,2" d="M175,-149.91C175,-149.91 175,-168.79 175,-168.79"/>
<polygon fill="black" stroke="black" points="171.5,-168.79 175,-178.79 178.5,-168.79 171.5,-168.79"/>
</g>
<!-- UsersGrpcHealthCheck -->
<g id="node4" class="node">
<title>UsersGrpcHealthCheck</title>
<ellipse fill="#fdb462" stroke="black" cx="251" cy="-66.8" rx="102.99" ry="18"/>
<text text-anchor="middle" x="251" y="-62.6" font-family="Times,serif" font-size="14.00">UsersGrpcHealthCheck</text>
</g>
<!-- UsersGrpcHealthCheck&#45;&gt;HealthChecksModule -->
<g id="edge3" class="edge">
<title>UsersGrpcHealthCheck&#45;&gt;HealthChecksModule</title>
<path fill="none" stroke="black" d="M196.15,-82.2C196.15,-82.2 196.15,-103.74 196.15,-103.74"/>
<polygon fill="black" stroke="black" points="192.65,-103.74 196.15,-113.74 199.65,-103.74 192.65,-103.74"/>
</g>
</g>
</svg>
