<?xml version="1.0" encoding="UTF-8" standalone="no"?>
<!DOCTYPE svg PUBLIC "-//W3C//DTD SVG 1.1//EN"
 "http://www.w3.org/Graphics/SVG/1.1/DTD/svg11.dtd">
<!-- Generated by graphviz version 5.0.0 (20220707.1540)
 -->
<!-- Title: dependencies Pages: 1 -->
<svg width="272pt" height="174pt"
 viewBox="0.00 0.00 272.00 173.80" xmlns="http://www.w3.org/2000/svg" xmlns:xlink="http://www.w3.org/1999/xlink">
<g id="graph0" class="graph" transform="scale(1 1) rotate(0) translate(4 169.8)">
<title>dependencies</title>
<polygon fill="white" stroke="transparent" points="-4,4 -4,-169.8 268,-169.8 268,4 -4,4"/>
<text text-anchor="middle" x="132" y="-8.2" font-family="sans-serif" font-size="14.00">dependencies</text>
<g id="clust1" class="cluster">
<title>cluster_AppModule</title>
<polygon fill="none" stroke="black" stroke-dasharray="1,5" points="8,-32.8 8,-157.8 256,-157.8 256,-32.8 8,-32.8"/>
</g>
<g id="clust3" class="cluster">
<title>cluster_AppModule_imports</title>
<polygon fill="none" stroke="black" points="16,-40.8 16,-92.8 248,-92.8 248,-40.8 16,-40.8"/>
</g>
<!-- ServicesModule -->
<g id="node1" class="node">
<title>ServicesModule</title>
<polygon fill="#8dd3c7" stroke="black" points="240.48,-84.8 237.48,-88.8 216.48,-88.8 213.48,-84.8 133.52,-84.8 133.52,-48.8 240.48,-48.8 240.48,-84.8"/>
<text text-anchor="middle" x="187" y="-62.6" font-family="Times,serif" font-size="14.00">ServicesModule</text>
</g>
<!-- AppModule -->
<g id="node3" class="node">
<title>AppModule</title>
<polygon fill="#8dd3c7" stroke="black" points="169.66,-149.8 166.66,-153.8 145.66,-153.8 142.66,-149.8 86.34,-149.8 86.34,-113.8 169.66,-113.8 169.66,-149.8"/>
<text text-anchor="middle" x="128" y="-127.6" font-family="Times,serif" font-size="14.00">AppModule</text>
</g>
<!-- ServicesModule&#45;&gt;AppModule -->
<g id="edge1" class="edge">
<title>ServicesModule&#45;&gt;AppModule</title>
<path fill="none" stroke="black" d="M151.67,-84.91C151.67,-84.91 151.67,-103.79 151.67,-103.79"/>
<polygon fill="black" stroke="black" points="148.17,-103.79 151.67,-113.79 155.17,-103.79 148.17,-103.79"/>
</g>
<!-- UsersModule -->
<g id="node2" class="node">
<title>UsersModule</title>
<polygon fill="#8dd3c7" stroke="black" points="115.94,-84.8 112.94,-88.8 91.94,-88.8 88.94,-84.8 24.06,-84.8 24.06,-48.8 115.94,-48.8 115.94,-84.8"/>
<text text-anchor="middle" x="70" y="-62.6" font-family="Times,serif" font-size="14.00">UsersModule</text>
</g>
<!-- UsersModule&#45;&gt;AppModule -->
<g id="edge2" class="edge">
<title>UsersModule&#45;&gt;AppModule</title>
<path fill="none" stroke="black" d="M100.94,-84.91C100.94,-84.91 100.94,-103.79 100.94,-103.79"/>
<polygon fill="black" stroke="black" points="97.44,-103.79 100.94,-113.79 104.44,-103.79 97.44,-103.79"/>
</g>
</g>
</svg>
