<?xml version="1.0" encoding="UTF-8" standalone="no"?>
<!DOCTYPE svg PUBLIC "-//W3C//DTD SVG 1.1//EN"
 "http://www.w3.org/Graphics/SVG/1.1/DTD/svg11.dtd">
<!-- Generated by graphviz version 5.0.0 (20220707.1540)
 -->
<!-- Title: dependencies Pages: 1 -->
<svg width="3998pt" height="383pt"
 viewBox="0.00 0.00 3998.00 382.80" xmlns="http://www.w3.org/2000/svg" xmlns:xlink="http://www.w3.org/1999/xlink">
<g id="graph0" class="graph" transform="scale(1 1) rotate(0) translate(4 378.8)">
<title>dependencies</title>
<polygon fill="white" stroke="transparent" points="-4,4 -4,-378.8 3994,-378.8 3994,4 -4,4"/>
<text text-anchor="middle" x="1995" y="-8.2" font-family="sans-serif" font-size="14.00">dependencies</text>
<g id="clust1" class="cluster">
<title>cluster_AppModule</title>
<polygon fill="none" stroke="black" stroke-dasharray="1,5" points="144,-32.8 144,-366.8 552,-366.8 552,-32.8 144,-32.8"/>
</g>
<g id="clust3" class="cluster">
<title>cluster_AppModule_imports</title>
<polygon fill="none" stroke="black" points="164,-40.8 164,-301.8 532,-301.8 532,-40.8 164,-40.8"/>
</g>
<g id="clust7" class="cluster">
<title>cluster_ClientsModule</title>
<polygon fill="none" stroke="black" stroke-dasharray="1,5" points="560,-241.8 560,-309.8 1654,-309.8 1654,-241.8 560,-241.8"/>
</g>
<g id="clust10" class="cluster">
<title>cluster_ClientsModule_exports</title>
<polygon fill="none" stroke="black" points="568,-249.8 568,-301.8 1646,-301.8 1646,-249.8 568,-249.8"/>
</g>
<g id="clust13" class="cluster">
<title>cluster_ConfigurationModule</title>
<polygon fill="none" stroke="black" stroke-dasharray="1,5" points="560,-165.8 560,-233.8 3982,-233.8 3982,-165.8 560,-165.8"/>
</g>
<g id="clust16" class="cluster">
<title>cluster_ConfigurationModule_exports</title>
<polygon fill="none" stroke="black" points="788,-173.8 788,-225.8 3974,-225.8 3974,-173.8 788,-173.8"/>
</g>
<g id="clust18" class="cluster">
<title>cluster_ConfigurationModule_providers</title>
<polygon fill="none" stroke="black" points="568,-173.8 568,-225.8 780,-225.8 780,-173.8 568,-173.8"/>
</g>
<g id="clust19" class="cluster">
<title>cluster_GuardsModule</title>
<polygon fill="none" stroke="black" stroke-dasharray="1,5" points="1662,-241.8 1662,-309.8 2658,-309.8 2658,-241.8 1662,-241.8"/>
</g>
<g id="clust22" class="cluster">
<title>cluster_GuardsModule_exports</title>
<polygon fill="none" stroke="black" points="2228,-249.8 2228,-301.8 2650,-301.8 2650,-249.8 2228,-249.8"/>
</g>
<g id="clust24" class="cluster">
<title>cluster_GuardsModule_providers</title>
<polygon fill="none" stroke="black" points="1670,-249.8 1670,-301.8 2220,-301.8 2220,-249.8 1670,-249.8"/>
</g>
<g id="clust37" class="cluster">
<title>cluster_PipesModule</title>
<polygon fill="none" stroke="black" stroke-dasharray="1,5" points="8,-97.8 8,-225.8 136,-225.8 136,-97.8 8,-97.8"/>
</g>
<g id="clust42" class="cluster">
<title>cluster_PipesModule_providers</title>
<polygon fill="none" stroke="black" points="16,-105.8 16,-157.8 128,-157.8 128,-105.8 16,-105.8"/>
</g>
<!-- ClientsModule -->
<g id="node1" class="node">
<title>ClientsModule</title>
<polygon fill="#8dd3c7" stroke="black" points="405.72,-217.8 402.72,-221.8 381.72,-221.8 378.72,-217.8 306.28,-217.8 306.28,-181.8 405.72,-181.8 405.72,-217.8"/>
<text text-anchor="middle" x="356" y="-195.6" font-family="Times,serif" font-size="14.00">ClientsModule</text>
</g>
<!-- AppModule -->
<g id="node7" class="node">
<title>AppModule</title>
<polygon fill="#8dd3c7" stroke="black" points="407.66,-358.8 404.66,-362.8 383.66,-362.8 380.66,-358.8 324.34,-358.8 324.34,-322.8 407.66,-322.8 407.66,-358.8"/>
<text text-anchor="middle" x="366" y="-336.6" font-family="Times,serif" font-size="14.00">AppModule</text>
</g>
<!-- ClientsModule&#45;&gt;AppModule -->
<g id="edge1" class="edge">
<title>ClientsModule&#45;&gt;AppModule</title>
<path fill="none" stroke="black" d="M359.73,-217.94C359.73,-217.94 359.73,-312.73 359.73,-312.73"/>
<polygon fill="black" stroke="black" points="356.23,-312.72 359.73,-322.73 363.23,-312.73 356.23,-312.72"/>
</g>
<!-- InjectionNames.CLIENT_GRPC_PROXY  -->
<g id="node8" class="node">
<title>InjectionNames.CLIENT_GRPC_PROXY </title>
<polygon fill="#fb8072" stroke="black" points="1637.93,-293.8 1378.07,-293.8 1378.07,-257.8 1637.93,-257.8 1637.93,-293.8"/>
<text text-anchor="middle" x="1508" y="-271.6" font-family="Times,serif" font-size="14.00">InjectionNames.CLIENT_GRPC_PROXY </text>
</g>
<!-- ClientsModule&#45;&gt;InjectionNames.CLIENT_GRPC_PROXY  -->
<g id="edge8" class="edge">
<title>ClientsModule&#45;&gt;InjectionNames.CLIENT_GRPC_PROXY </title>
<path fill="none" stroke="black" stroke-dasharray="5,2" d="M341.95,-217.86C341.95,-229.24 341.95,-241.8 341.95,-241.8 341.95,-241.8 1430.25,-241.8 1430.25,-241.8 1430.25,-241.8 1430.25,-247.61 1430.25,-247.61"/>
<polygon fill="black" stroke="black" points="1426.75,-247.61 1430.25,-257.61 1433.75,-247.61 1426.75,-247.61"/>
</g>
<!-- InjectionNames.CLIENT_TCP_PROXY  -->
<g id="node9" class="node">
<title>InjectionNames.CLIENT_TCP_PROXY </title>
<polygon fill="#fb8072" stroke="black" points="1360.03,-293.8 1111.97,-293.8 1111.97,-257.8 1360.03,-257.8 1360.03,-293.8"/>
<text text-anchor="middle" x="1236" y="-271.6" font-family="Times,serif" font-size="14.00">InjectionNames.CLIENT_TCP_PROXY </text>
</g>
<!-- ClientsModule&#45;&gt;InjectionNames.CLIENT_TCP_PROXY  -->
<g id="edge9" class="edge">
<title>ClientsModule&#45;&gt;InjectionNames.CLIENT_TCP_PROXY </title>
<path fill="none" stroke="black" stroke-dasharray="5,2" d="M403.03,-217.84C403.03,-230.36 403.03,-244.8 403.03,-244.8 403.03,-244.8 1189.67,-244.8 1189.67,-244.8 1189.67,-244.8 1189.67,-247.77 1189.67,-247.77"/>
<polygon fill="black" stroke="black" points="1186.17,-247.77 1189.67,-257.77 1193.17,-247.77 1186.17,-247.77"/>
</g>
<!-- InjectionNames.GRPC_USERS_CLIENT  -->
<g id="node10" class="node">
<title>InjectionNames.GRPC_USERS_CLIENT </title>
<polygon fill="#fb8072" stroke="black" points="1093.55,-293.8 838.45,-293.8 838.45,-257.8 1093.55,-257.8 1093.55,-293.8"/>
<text text-anchor="middle" x="966" y="-271.6" font-family="Times,serif" font-size="14.00">InjectionNames.GRPC_USERS_CLIENT </text>
</g>
<!-- ClientsModule&#45;&gt;InjectionNames.GRPC_USERS_CLIENT  -->
<g id="edge10" class="edge">
<title>ClientsModule&#45;&gt;InjectionNames.GRPC_USERS_CLIENT </title>
<path fill="none" stroke="black" stroke-dasharray="5,2" d="M400.45,-217.95C400.45,-231.54 400.45,-247.8 400.45,-247.8 400.45,-247.8 924.19,-247.8 924.19,-247.8 924.19,-247.8 924.19,-248.78 924.19,-248.78"/>
<polygon fill="black" stroke="black" points="920.69,-247.59 924.19,-257.59 927.69,-247.59 920.69,-247.59"/>
</g>
<!-- InjectionNames.TCP_USERS_CLIENT  -->
<g id="node11" class="node">
<title>InjectionNames.TCP_USERS_CLIENT </title>
<polygon fill="#fb8072" stroke="black" points="820.15,-293.8 575.85,-293.8 575.85,-257.8 820.15,-257.8 820.15,-293.8"/>
<text text-anchor="middle" x="698" y="-271.6" font-family="Times,serif" font-size="14.00">InjectionNames.TCP_USERS_CLIENT </text>
</g>
<!-- ClientsModule&#45;&gt;InjectionNames.TCP_USERS_CLIENT  -->
<g id="edge11" class="edge">
<title>ClientsModule&#45;&gt;InjectionNames.TCP_USERS_CLIENT </title>
<path fill="none" stroke="black" stroke-dasharray="5,2" d="M397.86,-217.99C397.86,-232.98 397.86,-251.8 397.86,-251.8 397.86,-251.8 674.06,-251.8 674.06,-251.8 674.06,-251.8 674.06,-252.38 674.06,-252.38"/>
<polygon fill="black" stroke="black" points="670.56,-247.61 674.06,-257.61 677.56,-247.61 670.56,-247.61"/>
</g>
<!-- ConfigurationModule -->
<g id="node2" class="node">
<title>ConfigurationModule</title>
<polygon fill="#8dd3c7" stroke="black" points="524.1,-149.8 521.1,-153.8 500.1,-153.8 497.1,-149.8 385.9,-149.8 385.9,-113.8 524.1,-113.8 524.1,-149.8"/>
<text text-anchor="middle" x="455" y="-127.6" font-family="Times,serif" font-size="14.00">ConfigurationModule</text>
</g>
<!-- ConfigurationModule&#45;&gt;ClientsModule -->
<g id="edge7" class="edge">
<title>ConfigurationModule&#45;&gt;ClientsModule</title>
<path fill="none" stroke="black" d="M395.78,-150.02C395.78,-150.02 395.78,-171.53 395.78,-171.53"/>
<polygon fill="black" stroke="black" points="392.28,-171.53 395.78,-181.53 399.28,-171.53 392.28,-171.53"/>
</g>
<!-- GuardsModule -->
<g id="node3" class="node">
<title>GuardsModule</title>
<polygon fill="#8dd3c7" stroke="black" points="523.99,-217.8 520.99,-221.8 499.99,-221.8 496.99,-217.8 424.01,-217.8 424.01,-181.8 523.99,-181.8 523.99,-217.8"/>
<text text-anchor="middle" x="474" y="-195.6" font-family="Times,serif" font-size="14.00">GuardsModule</text>
</g>
<!-- ConfigurationModule&#45;&gt;GuardsModule -->
<g id="edge26" class="edge">
<title>ConfigurationModule&#45;&gt;GuardsModule</title>
<path fill="none" stroke="black" d="M474,-150.02C474,-150.02 474,-171.53 474,-171.53"/>
<polygon fill="black" stroke="black" points="470.5,-171.53 474,-181.53 477.5,-171.53 470.5,-171.53"/>
</g>
<!-- HealthModule -->
<g id="node4" class="node">
<title>HealthModule</title>
<polygon fill="#8dd3c7" stroke="black" points="268.37,-217.8 265.37,-221.8 244.37,-221.8 241.37,-217.8 171.63,-217.8 171.63,-181.8 268.37,-181.8 268.37,-217.8"/>
<text text-anchor="middle" x="220" y="-195.6" font-family="Times,serif" font-size="14.00">HealthModule</text>
</g>
<!-- ConfigurationModule&#45;&gt;HealthModule -->
<g id="edge33" class="edge">
<title>ConfigurationModule&#45;&gt;HealthModule</title>
<path fill="none" stroke="black" d="M385.76,-137.8C316.44,-137.8 220,-137.8 220,-137.8 220,-137.8 220,-171.53 220,-171.53"/>
<polygon fill="black" stroke="black" points="216.5,-171.53 220,-181.53 223.5,-171.53 216.5,-171.53"/>
</g>
<!-- UsersModule -->
<g id="node6" class="node">
<title>UsersModule</title>
<polygon fill="#8dd3c7" stroke="black" points="486.94,-293.8 483.94,-297.8 462.94,-297.8 459.94,-293.8 395.06,-293.8 395.06,-257.8 486.94,-257.8 486.94,-293.8"/>
<text text-anchor="middle" x="441" y="-271.6" font-family="Times,serif" font-size="14.00">UsersModule</text>
</g>
<!-- ConfigurationModule&#45;&gt;UsersModule -->
<g id="edge36" class="edge">
<title>ConfigurationModule&#45;&gt;UsersModule</title>
<path fill="none" stroke="black" d="M417.87,-150.04C417.87,-150.04 417.87,-247.71 417.87,-247.71"/>
<polygon fill="black" stroke="black" points="414.37,-247.71 417.87,-257.71 421.37,-247.71 414.37,-247.71"/>
</g>
<!-- ConfigurationModule&#45;&gt;AppModule -->
<g id="edge2" class="edge">
<title>ConfigurationModule&#45;&gt;AppModule</title>
<path fill="none" stroke="black" d="M411.74,-149.95C411.74,-184.16 411.74,-254.8 411.74,-254.8 411.74,-254.8 377.5,-254.8 377.5,-254.8 377.5,-254.8 377.5,-312.56 377.5,-312.56"/>
<polygon fill="black" stroke="black" points="374,-312.56 377.5,-322.56 381,-312.56 374,-312.56"/>
</g>
<!-- InjectionNames.API_KEY  -->
<g id="node12" class="node">
<title>InjectionNames.API_KEY </title>
<polygon fill="#fb8072" stroke="black" points="3965.97,-217.8 3796.03,-217.8 3796.03,-181.8 3965.97,-181.8 3965.97,-217.8"/>
<text text-anchor="middle" x="3881" y="-195.6" font-family="Times,serif" font-size="14.00">InjectionNames.API_KEY </text>
</g>
<!-- ConfigurationModule&#45;&gt;InjectionNames.API_KEY  -->
<g id="edge13" class="edge">
<title>ConfigurationModule&#45;&gt;InjectionNames.API_KEY </title>
<path fill="none" stroke="black" stroke-dasharray="5,2" d="M524.21,-116.8C1009.36,-116.8 3881,-116.8 3881,-116.8 3881,-116.8 3881,-171.79 3881,-171.79"/>
<polygon fill="black" stroke="black" points="3877.5,-171.79 3881,-181.79 3884.5,-171.79 3877.5,-171.79"/>
</g>
<!-- InjectionNames.CONNECTION_STRING  -->
<g id="node13" class="node">
<title>InjectionNames.CONNECTION_STRING </title>
<polygon fill="#fb8072" stroke="black" points="3778.19,-217.8 3517.81,-217.8 3517.81,-181.8 3778.19,-181.8 3778.19,-217.8"/>
<text text-anchor="middle" x="3648" y="-195.6" font-family="Times,serif" font-size="14.00">InjectionNames.CONNECTION_STRING </text>
</g>
<!-- ConfigurationModule&#45;&gt;InjectionNames.CONNECTION_STRING  -->
<g id="edge14" class="edge">
<title>ConfigurationModule&#45;&gt;InjectionNames.CONNECTION_STRING </title>
<path fill="none" stroke="black" stroke-dasharray="5,2" d="M524.29,-119.8C990.18,-119.8 3648,-119.8 3648,-119.8 3648,-119.8 3648,-171.65 3648,-171.65"/>
<polygon fill="black" stroke="black" points="3644.5,-171.65 3648,-181.65 3651.5,-171.65 3644.5,-171.65"/>
</g>
<!-- InjectionNames.GRPC_CONFIG  -->
<g id="node14" class="node">
<title>InjectionNames.GRPC_CONFIG </title>
<polygon fill="#fb8072" stroke="black" points="3499.82,-217.8 3292.18,-217.8 3292.18,-181.8 3499.82,-181.8 3499.82,-217.8"/>
<text text-anchor="middle" x="3396" y="-195.6" font-family="Times,serif" font-size="14.00">InjectionNames.GRPC_CONFIG </text>
</g>
<!-- ConfigurationModule&#45;&gt;InjectionNames.GRPC_CONFIG  -->
<g id="edge15" class="edge">
<title>ConfigurationModule&#45;&gt;InjectionNames.GRPC_CONFIG </title>
<path fill="none" stroke="black" stroke-dasharray="5,2" d="M524.08,-121.8C967.56,-121.8 3396,-121.8 3396,-121.8 3396,-121.8 3396,-171.71 3396,-171.71"/>
<polygon fill="black" stroke="black" points="3392.5,-171.71 3396,-181.71 3399.5,-171.71 3392.5,-171.71"/>
</g>
<!-- InjectionNames.HASH_ROUNDS  -->
<g id="node15" class="node">
<title>InjectionNames.HASH_ROUNDS </title>
<polygon fill="#fb8072" stroke="black" points="3274.32,-217.8 3059.68,-217.8 3059.68,-181.8 3274.32,-181.8 3274.32,-217.8"/>
<text text-anchor="middle" x="3167" y="-195.6" font-family="Times,serif" font-size="14.00">InjectionNames.HASH_ROUNDS </text>
</g>
<!-- ConfigurationModule&#45;&gt;InjectionNames.HASH_ROUNDS  -->
<g id="edge16" class="edge">
<title>ConfigurationModule&#45;&gt;InjectionNames.HASH_ROUNDS </title>
<path fill="none" stroke="black" stroke-dasharray="5,2" d="M524.08,-124.8C946.86,-124.8 3167,-124.8 3167,-124.8 3167,-124.8 3167,-171.64 3167,-171.64"/>
<polygon fill="black" stroke="black" points="3163.5,-171.64 3167,-181.64 3170.5,-171.64 3163.5,-171.64"/>
</g>
<!-- InjectionNames.HEALTH_CHECK_DOCUMENTATION_ADDRESS  -->
<g id="node16" class="node">
<title>InjectionNames.HEALTH_CHECK_DOCUMENTATION_ADDRESS </title>
<polygon fill="#fb8072" stroke="black" points="3041.24,-217.8 2618.76,-217.8 2618.76,-181.8 3041.24,-181.8 3041.24,-217.8"/>
<text text-anchor="middle" x="2830" y="-195.6" font-family="Times,serif" font-size="14.00">InjectionNames.HEALTH_CHECK_DOCUMENTATION_ADDRESS </text>
</g>
<!-- ConfigurationModule&#45;&gt;InjectionNames.HEALTH_CHECK_DOCUMENTATION_ADDRESS  -->
<g id="edge17" class="edge">
<title>ConfigurationModule&#45;&gt;InjectionNames.HEALTH_CHECK_DOCUMENTATION_ADDRESS </title>
<path fill="none" stroke="black" stroke-dasharray="5,2" d="M524.15,-126.8C915.01,-126.8 2830,-126.8 2830,-126.8 2830,-126.8 2830,-171.76 2830,-171.76"/>
<polygon fill="black" stroke="black" points="2826.5,-171.76 2830,-181.76 2833.5,-171.76 2826.5,-171.76"/>
</g>
<!-- InjectionNames.HEALTH_CHECK_REST_ADDRESS  -->
<g id="node17" class="node">
<title>InjectionNames.HEALTH_CHECK_REST_ADDRESS </title>
<polygon fill="#fb8072" stroke="black" points="2601.09,-217.8 2266.91,-217.8 2266.91,-181.8 2601.09,-181.8 2601.09,-217.8"/>
<text text-anchor="middle" x="2434" y="-195.6" font-family="Times,serif" font-size="14.00">InjectionNames.HEALTH_CHECK_REST_ADDRESS </text>
</g>
<!-- ConfigurationModule&#45;&gt;InjectionNames.HEALTH_CHECK_REST_ADDRESS  -->
<g id="edge18" class="edge">
<title>ConfigurationModule&#45;&gt;InjectionNames.HEALTH_CHECK_REST_ADDRESS </title>
<path fill="none" stroke="black" stroke-dasharray="5,2" d="M524.27,-129.8C874.54,-129.8 2434,-129.8 2434,-129.8 2434,-129.8 2434,-171.77 2434,-171.77"/>
<polygon fill="black" stroke="black" points="2430.5,-171.77 2434,-181.77 2437.5,-171.77 2430.5,-171.77"/>
</g>
<!-- InjectionNames.PROJECT_NAME  -->
<g id="node18" class="node">
<title>InjectionNames.PROJECT_NAME </title>
<polygon fill="#fb8072" stroke="black" points="2248.48,-217.8 2029.52,-217.8 2029.52,-181.8 2248.48,-181.8 2248.48,-217.8"/>
<text text-anchor="middle" x="2139" y="-195.6" font-family="Times,serif" font-size="14.00">InjectionNames.PROJECT_NAME </text>
</g>
<!-- ConfigurationModule&#45;&gt;InjectionNames.PROJECT_NAME  -->
<g id="edge19" class="edge">
<title>ConfigurationModule&#45;&gt;InjectionNames.PROJECT_NAME </title>
<path fill="none" stroke="black" stroke-dasharray="5,2" d="M524.15,-131.8C841.04,-131.8 2139,-131.8 2139,-131.8 2139,-131.8 2139,-171.58 2139,-171.58"/>
<polygon fill="black" stroke="black" points="2135.5,-171.58 2139,-181.58 2142.5,-171.58 2135.5,-171.58"/>
</g>
<!-- InjectionNames.SECRETS_FROM_ENV  -->
<g id="node19" class="node">
<title>InjectionNames.SECRETS_FROM_ENV </title>
<polygon fill="#fb8072" stroke="black" points="2011.99,-217.8 1758.01,-217.8 1758.01,-181.8 2011.99,-181.8 2011.99,-217.8"/>
<text text-anchor="middle" x="1885" y="-195.6" font-family="Times,serif" font-size="14.00">InjectionNames.SECRETS_FROM_ENV </text>
</g>
<!-- ConfigurationModule&#45;&gt;InjectionNames.SECRETS_FROM_ENV  -->
<g id="edge20" class="edge">
<title>ConfigurationModule&#45;&gt;InjectionNames.SECRETS_FROM_ENV </title>
<path fill="none" stroke="black" stroke-dasharray="5,2" d="M524.46,-134.8C810.83,-134.8 1885,-134.8 1885,-134.8 1885,-134.8 1885,-171.69 1885,-171.69"/>
<polygon fill="black" stroke="black" points="1881.5,-171.69 1885,-181.69 1888.5,-171.69 1881.5,-171.69"/>
</g>
<!-- InjectionNames.SWAGGER_CONFIG  -->
<g id="node20" class="node">
<title>InjectionNames.SWAGGER_CONFIG </title>
<polygon fill="#fb8072" stroke="black" points="1739.97,-217.8 1500.03,-217.8 1500.03,-181.8 1739.97,-181.8 1739.97,-217.8"/>
<text text-anchor="middle" x="1620" y="-195.6" font-family="Times,serif" font-size="14.00">InjectionNames.SWAGGER_CONFIG </text>
</g>
<!-- ConfigurationModule&#45;&gt;InjectionNames.SWAGGER_CONFIG  -->
<g id="edge21" class="edge">
<title>ConfigurationModule&#45;&gt;InjectionNames.SWAGGER_CONFIG </title>
<path fill="none" stroke="black" stroke-dasharray="5,2" d="M524.39,-137.8C775.19,-137.8 1620,-137.8 1620,-137.8 1620,-137.8 1620,-171.53 1620,-171.53"/>
<polygon fill="black" stroke="black" points="1616.5,-171.53 1620,-181.53 1623.5,-171.53 1616.5,-171.53"/>
</g>
<!-- InjectionNames.TCP_CONFIG  -->
<g id="node21" class="node">
<title>InjectionNames.TCP_CONFIG </title>
<polygon fill="#fb8072" stroke="black" points="1482.43,-217.8 1285.57,-217.8 1285.57,-181.8 1482.43,-181.8 1482.43,-217.8"/>
<text text-anchor="middle" x="1384" y="-195.6" font-family="Times,serif" font-size="14.00">InjectionNames.TCP_CONFIG </text>
</g>
<!-- ConfigurationModule&#45;&gt;InjectionNames.TCP_CONFIG  -->
<g id="edge22" class="edge">
<title>ConfigurationModule&#45;&gt;InjectionNames.TCP_CONFIG </title>
<path fill="none" stroke="black" stroke-dasharray="5,2" d="M524.07,-139.8C739.37,-139.8 1384,-139.8 1384,-139.8 1384,-139.8 1384,-171.8 1384,-171.8"/>
<polygon fill="black" stroke="black" points="1380.5,-171.8 1384,-181.8 1387.5,-171.8 1380.5,-171.8"/>
</g>
<!-- InjectionNames.USERS_REST_PORT  -->
<g id="node22" class="node">
<title>InjectionNames.USERS_REST_PORT </title>
<polygon fill="#fb8072" stroke="black" points="1267.72,-217.8 1028.28,-217.8 1028.28,-181.8 1267.72,-181.8 1267.72,-217.8"/>
<text text-anchor="middle" x="1148" y="-195.6" font-family="Times,serif" font-size="14.00">InjectionNames.USERS_REST_PORT </text>
</g>
<!-- ConfigurationModule&#45;&gt;InjectionNames.USERS_REST_PORT  -->
<g id="edge23" class="edge">
<title>ConfigurationModule&#45;&gt;InjectionNames.USERS_REST_PORT </title>
<path fill="none" stroke="black" stroke-dasharray="5,2" d="M524.3,-142.8C699.81,-142.8 1148,-142.8 1148,-142.8 1148,-142.8 1148,-171.76 1148,-171.76"/>
<polygon fill="black" stroke="black" points="1144.5,-171.76 1148,-181.76 1151.5,-171.76 1144.5,-171.76"/>
</g>
<!-- InjectionNames.USE_SWAGGER  -->
<g id="node23" class="node">
<title>InjectionNames.USE_SWAGGER </title>
<polygon fill="#fb8072" stroke="black" points="1010.3,-217.8 795.7,-217.8 795.7,-181.8 1010.3,-181.8 1010.3,-217.8"/>
<text text-anchor="middle" x="903" y="-195.6" font-family="Times,serif" font-size="14.00">InjectionNames.USE_SWAGGER </text>
</g>
<!-- ConfigurationModule&#45;&gt;InjectionNames.USE_SWAGGER  -->
<g id="edge24" class="edge">
<title>ConfigurationModule&#45;&gt;InjectionNames.USE_SWAGGER </title>
<path fill="none" stroke="black" stroke-dasharray="5,2" d="M524.51,-144.8C650.34,-144.8 903,-144.8 903,-144.8 903,-144.8 903,-171.79 903,-171.79"/>
<polygon fill="black" stroke="black" points="899.5,-171.79 903,-181.79 906.5,-171.79 899.5,-171.79"/>
</g>
<!-- PipesModule -->
<g id="node31" class="node">
<title>PipesModule</title>
<polygon fill="#8dd3c7" stroke="black" points="121.89,-217.8 118.89,-221.8 97.89,-221.8 94.89,-217.8 32.11,-217.8 32.11,-181.8 121.89,-181.8 121.89,-217.8"/>
<text text-anchor="middle" x="77" y="-195.6" font-family="Times,serif" font-size="14.00">PipesModule</text>
</g>
<!-- ConfigurationModule&#45;&gt;PipesModule -->
<g id="edge34" class="edge">
<title>ConfigurationModule&#45;&gt;PipesModule</title>
<path fill="none" stroke="black" d="M385.82,-125.8C294.94,-125.8 146.76,-125.8 146.76,-125.8 146.76,-125.8 146.76,-199.8 146.76,-199.8 146.76,-199.8 131.97,-199.8 131.97,-199.8"/>
<polygon fill="black" stroke="black" points="131.97,-196.3 121.97,-199.8 131.97,-203.3 131.97,-196.3"/>
</g>
<!-- GuardsModule&#45;&gt;UsersModule -->
<g id="edge37" class="edge">
<title>GuardsModule&#45;&gt;UsersModule</title>
<path fill="none" stroke="black" d="M455.36,-217.81C455.36,-217.81 455.36,-247.65 455.36,-247.65"/>
<polygon fill="black" stroke="black" points="451.86,-247.65 455.36,-257.65 458.86,-247.65 451.86,-247.65"/>
</g>
<!-- GuardsModule&#45;&gt;AppModule -->
<g id="edge3" class="edge">
<title>GuardsModule&#45;&gt;AppModule</title>
<path fill="none" stroke="black" d="M519.33,-217.94C519.33,-256.03 519.33,-340.8 519.33,-340.8 519.33,-340.8 417.9,-340.8 417.9,-340.8"/>
<polygon fill="black" stroke="black" points="417.9,-337.3 407.9,-340.8 417.9,-344.3 417.9,-337.3"/>
</g>
<!-- ApiKeyGrpcGuard  -->
<g id="node25" class="node">
<title>ApiKeyGrpcGuard </title>
<polygon fill="#fb8072" stroke="black" points="2642.3,-293.8 2515.7,-293.8 2515.7,-257.8 2642.3,-257.8 2642.3,-293.8"/>
<text text-anchor="middle" x="2579" y="-271.6" font-family="Times,serif" font-size="14.00">ApiKeyGrpcGuard </text>
</g>
<!-- GuardsModule&#45;&gt;ApiKeyGrpcGuard  -->
<g id="edge27" class="edge">
<title>GuardsModule&#45;&gt;ApiKeyGrpcGuard </title>
<path fill="none" stroke="black" stroke-dasharray="5,2" d="M500.7,-217.97C500.7,-220.25 500.7,-221.8 500.7,-221.8 500.7,-221.8 2558.32,-221.8 2558.32,-221.8 2558.32,-221.8 2558.32,-247.52 2558.32,-247.52"/>
<polygon fill="black" stroke="black" points="2554.82,-247.52 2558.32,-257.52 2561.82,-247.52 2554.82,-247.52"/>
</g>
<!-- ApiKeyHttpGuard  -->
<g id="node26" class="node">
<title>ApiKeyHttpGuard </title>
<polygon fill="#fb8072" stroke="black" points="2497.7,-293.8 2374.3,-293.8 2374.3,-257.8 2497.7,-257.8 2497.7,-293.8"/>
<text text-anchor="middle" x="2436" y="-271.6" font-family="Times,serif" font-size="14.00">ApiKeyHttpGuard </text>
</g>
<!-- GuardsModule&#45;&gt;ApiKeyHttpGuard  -->
<g id="edge28" class="edge">
<title>GuardsModule&#45;&gt;ApiKeyHttpGuard </title>
<path fill="none" stroke="black" stroke-dasharray="5,2" d="M496.04,-217.97C496.04,-221.85 496.04,-224.8 496.04,-224.8 496.04,-224.8 2436,-224.8 2436,-224.8 2436,-224.8 2436,-247.68 2436,-247.68"/>
<polygon fill="black" stroke="black" points="2432.5,-247.68 2436,-257.68 2439.5,-247.68 2432.5,-247.68"/>
</g>
<!-- ApiKeyTcpGuard  -->
<g id="node27" class="node">
<title>ApiKeyTcpGuard </title>
<polygon fill="#fb8072" stroke="black" points="2356.08,-293.8 2235.92,-293.8 2235.92,-257.8 2356.08,-257.8 2356.08,-293.8"/>
<text text-anchor="middle" x="2296" y="-271.6" font-family="Times,serif" font-size="14.00">ApiKeyTcpGuard </text>
</g>
<!-- GuardsModule&#45;&gt;ApiKeyTcpGuard  -->
<g id="edge29" class="edge">
<title>GuardsModule&#45;&gt;ApiKeyTcpGuard </title>
<path fill="none" stroke="black" stroke-dasharray="5,2" d="M491.38,-218.01C491.38,-223.35 491.38,-227.8 491.38,-227.8 491.38,-227.8 2242.1,-227.8 2242.1,-227.8 2242.1,-227.8 2242.1,-247.65 2242.1,-247.65"/>
<polygon fill="black" stroke="black" points="2238.6,-247.65 2242.1,-257.65 2245.6,-247.65 2238.6,-247.65"/>
</g>
<!-- HealthModule&#45;&gt;AppModule -->
<g id="edge4" class="edge">
<title>HealthModule&#45;&gt;AppModule</title>
<path fill="none" stroke="black" d="M220,-217.83C220,-257.08 220,-346.8 220,-346.8 220,-346.8 314.16,-346.8 314.16,-346.8"/>
<polygon fill="black" stroke="black" points="314.16,-350.3 324.16,-346.8 314.16,-343.3 314.16,-350.3"/>
</g>
<!-- LoggingModule -->
<g id="node5" class="node">
<title>LoggingModule</title>
<polygon fill="#8dd3c7" stroke="black" points="516.49,-84.8 513.49,-88.8 492.49,-88.8 489.49,-84.8 409.51,-84.8 409.51,-48.8 516.49,-48.8 516.49,-84.8"/>
<text text-anchor="middle" x="463" y="-62.6" font-family="Times,serif" font-size="14.00">LoggingModule</text>
</g>
<!-- LoggingModule&#45;&gt;ConfigurationModule -->
<g id="edge12" class="edge">
<title>LoggingModule&#45;&gt;ConfigurationModule</title>
<path fill="none" stroke="black" d="M463,-84.91C463,-84.91 463,-103.79 463,-103.79"/>
<polygon fill="black" stroke="black" points="459.5,-103.79 463,-113.79 466.5,-103.79 459.5,-103.79"/>
</g>
<!-- LoggingModule&#45;&gt;AppModule -->
<g id="edge5" class="edge">
<title>LoggingModule&#45;&gt;AppModule</title>
<path fill="none" stroke="black" d="M409.36,-66.8C357.73,-66.8 287.41,-66.8 287.41,-66.8 287.41,-66.8 287.41,-334.8 287.41,-334.8 287.41,-334.8 313.95,-334.8 313.95,-334.8"/>
<polygon fill="black" stroke="black" points="313.95,-338.3 323.95,-334.8 313.95,-331.3 313.95,-338.3"/>
</g>
<!-- UsersModule&#45;&gt;AppModule -->
<g id="edge6" class="edge">
<title>UsersModule&#45;&gt;AppModule</title>
<path fill="none" stroke="black" d="M401.56,-293.91C401.56,-293.91 401.56,-312.79 401.56,-312.79"/>
<polygon fill="black" stroke="black" points="398.06,-312.79 401.56,-322.79 405.06,-312.79 398.06,-312.79"/>
</g>
<!-- SecretManagerService -->
<g id="node24" class="node">
<title>SecretManagerService</title>
<ellipse fill="#fdb462" stroke="black" cx="674" cy="-199.8" rx="98.38" ry="18"/>
<text text-anchor="middle" x="674" y="-195.6" font-family="Times,serif" font-size="14.00">SecretManagerService</text>
</g>
<!-- SecretManagerService&#45;&gt;ConfigurationModule -->
<g id="edge25" class="edge">
<title>SecretManagerService&#45;&gt;ConfigurationModule</title>
<path fill="none" stroke="black" d="M674,-181.61C674,-166.62 674,-147.8 674,-147.8 674,-147.8 534.29,-147.8 534.29,-147.8"/>
<polygon fill="black" stroke="black" points="534.29,-144.3 524.29,-147.8 534.29,-151.3 534.29,-144.3"/>
</g>
<!-- ApiKeyGrpcGuard -->
<g id="node28" class="node">
<title>ApiKeyGrpcGuard</title>
<ellipse fill="#fdb462" stroke="black" cx="2127" cy="-275.8" rx="85.1" ry="18"/>
<text text-anchor="middle" x="2127" y="-271.6" font-family="Times,serif" font-size="14.00">ApiKeyGrpcGuard</text>
</g>
<!-- ApiKeyGrpcGuard&#45;&gt;GuardsModule -->
<g id="edge30" class="edge">
<title>ApiKeyGrpcGuard&#45;&gt;GuardsModule</title>
<path fill="none" stroke="black" d="M2127,-257.65C2127,-245.53 2127,-231.8 2127,-231.8 2127,-231.8 514.67,-231.8 514.67,-231.8 514.67,-231.8 514.67,-228.04 514.67,-228.04"/>
<polygon fill="black" stroke="black" points="518.17,-228.04 514.67,-218.04 511.17,-228.04 518.17,-228.04"/>
</g>
<!-- ApiKeyHttpGuard -->
<g id="node29" class="node">
<title>ApiKeyHttpGuard</title>
<ellipse fill="#fdb462" stroke="black" cx="1941" cy="-275.8" rx="82.82" ry="18"/>
<text text-anchor="middle" x="1941" y="-271.6" font-family="Times,serif" font-size="14.00">ApiKeyHttpGuard</text>
</g>
<!-- ApiKeyHttpGuard&#45;&gt;GuardsModule -->
<g id="edge31" class="edge">
<title>ApiKeyHttpGuard&#45;&gt;GuardsModule</title>
<path fill="none" stroke="black" d="M1935.04,-257.7C1935.04,-246.71 1935.04,-234.8 1935.04,-234.8 1935.04,-234.8 510.01,-234.8 510.01,-234.8 510.01,-234.8 510.01,-228.12 510.01,-228.12"/>
<polygon fill="black" stroke="black" points="513.51,-228.12 510.01,-218.12 506.51,-228.12 513.51,-228.12"/>
</g>
<!-- ApiKeyTcpGuard -->
<g id="node30" class="node">
<title>ApiKeyTcpGuard</title>
<ellipse fill="#fdb462" stroke="black" cx="1759" cy="-275.8" rx="80.51" ry="18"/>
<text text-anchor="middle" x="1759" y="-271.6" font-family="Times,serif" font-size="14.00">ApiKeyTcpGuard</text>
</g>
<!-- ApiKeyTcpGuard&#45;&gt;GuardsModule -->
<g id="edge32" class="edge">
<title>ApiKeyTcpGuard&#45;&gt;GuardsModule</title>
<path fill="none" stroke="black" d="M1709.11,-261.22C1709.11,-250.5 1709.11,-237.8 1709.11,-237.8 1709.11,-237.8 505.36,-237.8 505.36,-237.8 505.36,-237.8 505.36,-227.91 505.36,-227.91"/>
<polygon fill="black" stroke="black" points="508.86,-227.91 505.36,-217.91 501.86,-227.91 508.86,-227.91"/>
</g>
<!-- HashPipe -->
<g id="node32" class="node">
<title>HashPipe</title>
<ellipse fill="#fdb462" stroke="black" cx="72" cy="-131.8" rx="48.1" ry="18"/>
<text text-anchor="middle" x="72" y="-127.6" font-family="Times,serif" font-size="14.00">HashPipe</text>
</g>
<!-- HashPipe&#45;&gt;PipesModule -->
<g id="edge35" class="edge">
<title>HashPipe&#45;&gt;PipesModule</title>
<path fill="none" stroke="black" d="M76.05,-150.02C76.05,-150.02 76.05,-171.53 76.05,-171.53"/>
<polygon fill="black" stroke="black" points="72.55,-171.53 76.05,-181.53 79.55,-171.53 72.55,-171.53"/>
</g>
</g>
</svg>
