<?xml version="1.0" encoding="UTF-8" standalone="no"?>
<!DOCTYPE svg PUBLIC "-//W3C//DTD SVG 1.1//EN"
 "http://www.w3.org/Graphics/SVG/1.1/DTD/svg11.dtd">
<!-- Generated by graphviz version 5.0.0 (20220707.1540)
 -->
<!-- Title: dependencies Pages: 1 -->
<svg width="264pt" height="247pt"
 viewBox="0.00 0.00 264.00 246.80" xmlns="http://www.w3.org/2000/svg" xmlns:xlink="http://www.w3.org/1999/xlink">
<g id="graph0" class="graph" transform="scale(1 1) rotate(0) translate(4 242.8)">
<title>dependencies</title>
<polygon fill="white" stroke="transparent" points="-4,4 -4,-242.8 260,-242.8 260,4 -4,4"/>
<text text-anchor="middle" x="128" y="-8.2" font-family="sans-serif" font-size="14.00">dependencies</text>
<g id="clust1" class="cluster">
<title>cluster_ServicesModule</title>
<polygon fill="none" stroke="black" stroke-dasharray="1,5" points="8,-32.8 8,-230.8 248,-230.8 248,-32.8 8,-32.8"/>
</g>
<g id="clust4" class="cluster">
<title>cluster_ServicesModule_exports</title>
<polygon fill="none" stroke="black" points="43,-170.8 43,-222.8 213,-222.8 213,-170.8 43,-170.8"/>
</g>
<g id="clust6" class="cluster">
<title>cluster_ServicesModule_providers</title>
<polygon fill="none" stroke="black" points="16,-40.8 16,-92.8 240,-92.8 240,-40.8 16,-40.8"/>
</g>
<!-- MongodbConfigService  -->
<g id="node1" class="node">
<title>MongodbConfigService </title>
<polygon fill="#fb8072" stroke="black" points="205.32,-214.8 50.68,-214.8 50.68,-178.8 205.32,-178.8 205.32,-214.8"/>
<text text-anchor="middle" x="128" y="-192.6" font-family="Times,serif" font-size="14.00">MongodbConfigService </text>
</g>
<!-- ServicesModule -->
<g id="node2" class="node">
<title>ServicesModule</title>
<polygon fill="#8dd3c7" stroke="black" points="181.48,-149.8 178.48,-153.8 157.48,-153.8 154.48,-149.8 74.52,-149.8 74.52,-113.8 181.48,-113.8 181.48,-149.8"/>
<text text-anchor="middle" x="128" y="-127.6" font-family="Times,serif" font-size="14.00">ServicesModule</text>
</g>
<!-- ServicesModule&#45;&gt;MongodbConfigService  -->
<g id="edge1" class="edge">
<title>ServicesModule&#45;&gt;MongodbConfigService </title>
<path fill="none" stroke="black" stroke-dasharray="5,2" d="M128,-149.91C128,-149.91 128,-168.79 128,-168.79"/>
<polygon fill="black" stroke="black" points="124.5,-168.79 128,-178.79 131.5,-168.79 124.5,-168.79"/>
</g>
<!-- MongodbConfigService -->
<g id="node3" class="node">
<title>MongodbConfigService</title>
<ellipse fill="#fdb462" stroke="black" cx="128" cy="-66.8" rx="104.25" ry="18"/>
<text text-anchor="middle" x="128" y="-62.6" font-family="Times,serif" font-size="14.00">MongodbConfigService</text>
</g>
<!-- MongodbConfigService&#45;&gt;ServicesModule -->
<g id="edge2" class="edge">
<title>MongodbConfigService&#45;&gt;ServicesModule</title>
<path fill="none" stroke="black" d="M128,-84.91C128,-84.91 128,-103.79 128,-103.79"/>
<polygon fill="black" stroke="black" points="124.5,-103.79 128,-113.79 131.5,-103.79 124.5,-103.79"/>
</g>
</g>
</svg>
