<?xml version="1.0" encoding="UTF-8" standalone="no"?>
<!DOCTYPE svg PUBLIC "-//W3C//DTD SVG 1.1//EN"
 "http://www.w3.org/Graphics/SVG/1.1/DTD/svg11.dtd">
<!-- Generated by graphviz version 5.0.0 (20220707.1540)
 -->
<!-- Title: dependencies Pages: 1 -->
<svg width="752pt" height="247pt"
 viewBox="0.00 0.00 752.00 246.80" xmlns="http://www.w3.org/2000/svg" xmlns:xlink="http://www.w3.org/1999/xlink">
<g id="graph0" class="graph" transform="scale(1 1) rotate(0) translate(4 242.8)">
<title>dependencies</title>
<polygon fill="white" stroke="transparent" points="-4,4 -4,-242.8 748,-242.8 748,4 -4,4"/>
<text text-anchor="middle" x="372" y="-8.2" font-family="sans-serif" font-size="14.00">dependencies</text>
<g id="clust1" class="cluster">
<title>cluster_GuardsModule</title>
<polygon fill="none" stroke="black" stroke-dasharray="1,5" points="8,-32.8 8,-230.8 736,-230.8 736,-32.8 8,-32.8"/>
</g>
<g id="clust3" class="cluster">
<title>cluster_GuardsModule_imports</title>
<polygon fill="none" stroke="black" points="574,-40.8 574,-92.8 728,-92.8 728,-40.8 574,-40.8"/>
</g>
<g id="clust4" class="cluster">
<title>cluster_GuardsModule_exports</title>
<polygon fill="none" stroke="black" points="172,-170.8 172,-222.8 594,-222.8 594,-170.8 172,-170.8"/>
</g>
<g id="clust6" class="cluster">
<title>cluster_GuardsModule_providers</title>
<polygon fill="none" stroke="black" points="16,-40.8 16,-92.8 566,-92.8 566,-40.8 16,-40.8"/>
</g>
<!-- ConfigurationModule -->
<g id="node1" class="node">
<title>ConfigurationModule</title>
<polygon fill="#8dd3c7" stroke="black" points="720.1,-84.8 717.1,-88.8 696.1,-88.8 693.1,-84.8 581.9,-84.8 581.9,-48.8 720.1,-48.8 720.1,-84.8"/>
<text text-anchor="middle" x="651" y="-62.6" font-family="Times,serif" font-size="14.00">ConfigurationModule</text>
</g>
<!-- GuardsModule -->
<g id="node2" class="node">
<title>GuardsModule</title>
<polygon fill="#8dd3c7" stroke="black" points="429.99,-149.8 426.99,-153.8 405.99,-153.8 402.99,-149.8 330.01,-149.8 330.01,-113.8 429.99,-113.8 429.99,-149.8"/>
<text text-anchor="middle" x="380" y="-127.6" font-family="Times,serif" font-size="14.00">GuardsModule</text>
</g>
<!-- ConfigurationModule&#45;&gt;GuardsModule -->
<g id="edge1" class="edge">
<title>ConfigurationModule&#45;&gt;GuardsModule</title>
<path fill="none" stroke="black" d="M653.22,-84.82C653.22,-102.17 653.22,-125.8 653.22,-125.8 653.22,-125.8 440.11,-125.8 440.11,-125.8"/>
<polygon fill="black" stroke="black" points="440.11,-122.3 430.11,-125.8 440.11,-129.3 440.11,-122.3"/>
</g>
<!-- ApiKeyGrpcGuard  -->
<g id="node3" class="node">
<title>ApiKeyGrpcGuard </title>
<polygon fill="#fb8072" stroke="black" points="586.3,-214.8 459.7,-214.8 459.7,-178.8 586.3,-178.8 586.3,-214.8"/>
<text text-anchor="middle" x="523" y="-192.6" font-family="Times,serif" font-size="14.00">ApiKeyGrpcGuard </text>
</g>
<!-- GuardsModule&#45;&gt;ApiKeyGrpcGuard  -->
<g id="edge2" class="edge">
<title>GuardsModule&#45;&gt;ApiKeyGrpcGuard </title>
<path fill="none" stroke="black" stroke-dasharray="5,2" d="M430.18,-137.8C466.35,-137.8 508.82,-137.8 508.82,-137.8 508.82,-137.8 508.82,-168.78 508.82,-168.78"/>
<polygon fill="black" stroke="black" points="505.32,-168.78 508.82,-178.78 512.32,-168.78 505.32,-168.78"/>
</g>
<!-- ApiKeyHttpGuard  -->
<g id="node4" class="node">
<title>ApiKeyHttpGuard </title>
<polygon fill="#fb8072" stroke="black" points="441.7,-214.8 318.3,-214.8 318.3,-178.8 441.7,-178.8 441.7,-214.8"/>
<text text-anchor="middle" x="380" y="-192.6" font-family="Times,serif" font-size="14.00">ApiKeyHttpGuard </text>
</g>
<!-- GuardsModule&#45;&gt;ApiKeyHttpGuard  -->
<g id="edge3" class="edge">
<title>GuardsModule&#45;&gt;ApiKeyHttpGuard </title>
<path fill="none" stroke="black" stroke-dasharray="5,2" d="M380,-149.91C380,-149.91 380,-168.79 380,-168.79"/>
<polygon fill="black" stroke="black" points="376.5,-168.79 380,-178.79 383.5,-168.79 376.5,-168.79"/>
</g>
<!-- ApiKeyTcpGuard  -->
<g id="node5" class="node">
<title>ApiKeyTcpGuard </title>
<polygon fill="#fb8072" stroke="black" points="300.08,-214.8 179.92,-214.8 179.92,-178.8 300.08,-178.8 300.08,-214.8"/>
<text text-anchor="middle" x="240" y="-192.6" font-family="Times,serif" font-size="14.00">ApiKeyTcpGuard </text>
</g>
<!-- GuardsModule&#45;&gt;ApiKeyTcpGuard  -->
<g id="edge4" class="edge">
<title>GuardsModule&#45;&gt;ApiKeyTcpGuard </title>
<path fill="none" stroke="black" stroke-dasharray="5,2" d="M329.85,-137.8C294.04,-137.8 252.19,-137.8 252.19,-137.8 252.19,-137.8 252.19,-168.78 252.19,-168.78"/>
<polygon fill="black" stroke="black" points="248.69,-168.78 252.19,-178.78 255.69,-168.78 248.69,-168.78"/>
</g>
<!-- ApiKeyGrpcGuard -->
<g id="node6" class="node">
<title>ApiKeyGrpcGuard</title>
<ellipse fill="#fdb462" stroke="black" cx="473" cy="-66.8" rx="85.1" ry="18"/>
<text text-anchor="middle" x="473" y="-62.6" font-family="Times,serif" font-size="14.00">ApiKeyGrpcGuard</text>
</g>
<!-- ApiKeyGrpcGuard&#45;&gt;GuardsModule -->
<g id="edge5" class="edge">
<title>ApiKeyGrpcGuard&#45;&gt;GuardsModule</title>
<path fill="none" stroke="black" d="M408.97,-78.72C408.97,-78.72 408.97,-103.57 408.97,-103.57"/>
<polygon fill="black" stroke="black" points="405.47,-103.57 408.97,-113.57 412.47,-103.57 405.47,-103.57"/>
</g>
<!-- ApiKeyHttpGuard -->
<g id="node7" class="node">
<title>ApiKeyHttpGuard</title>
<ellipse fill="#fdb462" stroke="black" cx="287" cy="-66.8" rx="82.82" ry="18"/>
<text text-anchor="middle" x="287" y="-62.6" font-family="Times,serif" font-size="14.00">ApiKeyHttpGuard</text>
</g>
<!-- ApiKeyHttpGuard&#45;&gt;GuardsModule -->
<g id="edge6" class="edge">
<title>ApiKeyHttpGuard&#45;&gt;GuardsModule</title>
<path fill="none" stroke="black" d="M349.96,-78.72C349.96,-78.72 349.96,-103.57 349.96,-103.57"/>
<polygon fill="black" stroke="black" points="346.46,-103.57 349.96,-113.57 353.46,-103.57 346.46,-103.57"/>
</g>
<!-- ApiKeyTcpGuard -->
<g id="node8" class="node">
<title>ApiKeyTcpGuard</title>
<ellipse fill="#fdb462" stroke="black" cx="105" cy="-66.8" rx="80.51" ry="18"/>
<text text-anchor="middle" x="105" y="-62.6" font-family="Times,serif" font-size="14.00">ApiKeyTcpGuard</text>
</g>
<!-- ApiKeyTcpGuard&#45;&gt;GuardsModule -->
<g id="edge7" class="edge">
<title>ApiKeyTcpGuard&#45;&gt;GuardsModule</title>
<path fill="none" stroke="black" d="M101.98,-84.82C101.98,-102.17 101.98,-125.8 101.98,-125.8 101.98,-125.8 319.97,-125.8 319.97,-125.8"/>
<polygon fill="black" stroke="black" points="319.97,-129.3 329.97,-125.8 319.97,-122.3 319.97,-129.3"/>
</g>
</g>
</svg>
