<?xml version="1.0" encoding="UTF-8" standalone="no"?>
<!DOCTYPE svg PUBLIC "-//W3C//DTD SVG 1.1//EN"
 "http://www.w3.org/Graphics/SVG/1.1/DTD/svg11.dtd">
<!-- Generated by graphviz version 5.0.0 (20220707.1540)
 -->
<!-- Title: dependencies Pages: 1 -->
<svg width="312pt" height="174pt"
 viewBox="0.00 0.00 312.00 173.80" xmlns="http://www.w3.org/2000/svg" xmlns:xlink="http://www.w3.org/1999/xlink">
<g id="graph0" class="graph" transform="scale(1 1) rotate(0) translate(4 169.8)">
<title>dependencies</title>
<polygon fill="white" stroke="transparent" points="-4,4 -4,-169.8 308,-169.8 308,4 -4,4"/>
<text text-anchor="middle" x="152" y="-8.2" font-family="sans-serif" font-size="14.00">dependencies</text>
<g id="clust1" class="cluster">
<title>cluster_UsersModule</title>
<polygon fill="none" stroke="black" stroke-dasharray="1,5" points="8,-32.8 8,-157.8 296,-157.8 296,-32.8 8,-32.8"/>
</g>
<g id="clust3" class="cluster">
<title>cluster_UsersModule_imports</title>
<polygon fill="none" stroke="black" points="16,-40.8 16,-92.8 288,-92.8 288,-40.8 16,-40.8"/>
</g>
<!-- ConfigurationModule -->
<g id="node1" class="node">
<title>ConfigurationModule</title>
<polygon fill="#8dd3c7" stroke="black" points="280.1,-84.8 277.1,-88.8 256.1,-88.8 253.1,-84.8 141.9,-84.8 141.9,-48.8 280.1,-48.8 280.1,-84.8"/>
<text text-anchor="middle" x="211" y="-62.6" font-family="Times,serif" font-size="14.00">ConfigurationModule</text>
</g>
<!-- UsersModule -->
<g id="node3" class="node">
<title>UsersModule</title>
<polygon fill="#8dd3c7" stroke="black" points="187.94,-149.8 184.94,-153.8 163.94,-153.8 160.94,-149.8 96.06,-149.8 96.06,-113.8 187.94,-113.8 187.94,-149.8"/>
<text text-anchor="middle" x="142" y="-127.6" font-family="Times,serif" font-size="14.00">UsersModule</text>
</g>
<!-- ConfigurationModule&#45;&gt;UsersModule -->
<g id="edge1" class="edge">
<title>ConfigurationModule&#45;&gt;UsersModule</title>
<path fill="none" stroke="black" d="M164.83,-84.91C164.83,-84.91 164.83,-103.79 164.83,-103.79"/>
<polygon fill="black" stroke="black" points="161.33,-103.79 164.83,-113.79 168.33,-103.79 161.33,-103.79"/>
</g>
<!-- GuardsModule -->
<g id="node2" class="node">
<title>GuardsModule</title>
<polygon fill="#8dd3c7" stroke="black" points="123.99,-84.8 120.99,-88.8 99.99,-88.8 96.99,-84.8 24.01,-84.8 24.01,-48.8 123.99,-48.8 123.99,-84.8"/>
<text text-anchor="middle" x="74" y="-62.6" font-family="Times,serif" font-size="14.00">GuardsModule</text>
</g>
<!-- GuardsModule&#45;&gt;UsersModule -->
<g id="edge2" class="edge">
<title>GuardsModule&#45;&gt;UsersModule</title>
<path fill="none" stroke="black" d="M110.14,-84.91C110.14,-84.91 110.14,-103.79 110.14,-103.79"/>
<polygon fill="black" stroke="black" points="106.64,-103.79 110.14,-113.79 113.64,-103.79 106.64,-103.79"/>
</g>
</g>
</svg>
