<?xml version="1.0" encoding="UTF-8" standalone="no"?>
<!DOCTYPE svg PUBLIC "-//W3C//DTD SVG 1.1//EN"
 "http://www.w3.org/Graphics/SVG/1.1/DTD/svg11.dtd">
<!-- Generated by graphviz version 5.0.0 (20220707.1540)
 -->
<!-- Title: dependencies Pages: 1 -->
<svg width="2175pt" height="247pt"
 viewBox="0.00 0.00 2175.00 246.80" xmlns="http://www.w3.org/2000/svg" xmlns:xlink="http://www.w3.org/1999/xlink">
<g id="graph0" class="graph" transform="scale(1 1) rotate(0) translate(4 242.8)">
<title>dependencies</title>
<polygon fill="white" stroke="transparent" points="-4,4 -4,-242.8 2171,-242.8 2171,4 -4,4"/>
<text text-anchor="middle" x="1083.5" y="-8.2" font-family="sans-serif" font-size="14.00">dependencies</text>
<g id="clust1" class="cluster">
<title>cluster_ConfigurationModule</title>
<polygon fill="none" stroke="black" stroke-dasharray="1,5" points="8,-32.8 8,-230.8 2159,-230.8 2159,-32.8 8,-32.8"/>
</g>
<g id="clust3" class="cluster">
<title>cluster_ConfigurationModule_imports</title>
<polygon fill="none" stroke="black" points="1136,-40.8 1136,-92.8 1258,-92.8 1258,-40.8 1136,-40.8"/>
</g>
<g id="clust4" class="cluster">
<title>cluster_ConfigurationModule_exports</title>
<polygon fill="none" stroke="black" points="16,-170.8 16,-222.8 2151,-222.8 2151,-170.8 16,-170.8"/>
</g>
<g id="clust6" class="cluster">
<title>cluster_ConfigurationModule_providers</title>
<polygon fill="none" stroke="black" points="916,-40.8 916,-92.8 1128,-92.8 1128,-40.8 916,-40.8"/>
</g>
<!-- ServicesModule -->
<g id="node1" class="node">
<title>ServicesModule</title>
<polygon fill="#8dd3c7" stroke="black" points="1250.48,-84.8 1247.48,-88.8 1226.48,-88.8 1223.48,-84.8 1143.52,-84.8 1143.52,-48.8 1250.48,-48.8 1250.48,-84.8"/>
<text text-anchor="middle" x="1197" y="-62.6" font-family="Times,serif" font-size="14.00">ServicesModule</text>
</g>
<!-- ConfigurationModule -->
<g id="node2" class="node">
<title>ConfigurationModule</title>
<polygon fill="#8dd3c7" stroke="black" points="1178.1,-149.8 1175.1,-153.8 1154.1,-153.8 1151.1,-149.8 1039.9,-149.8 1039.9,-113.8 1178.1,-113.8 1178.1,-149.8"/>
<text text-anchor="middle" x="1109" y="-127.6" font-family="Times,serif" font-size="14.00">ConfigurationModule</text>
</g>
<!-- ServicesModule&#45;&gt;ConfigurationModule -->
<g id="edge1" class="edge">
<title>ServicesModule&#45;&gt;ConfigurationModule</title>
<path fill="none" stroke="black" d="M1160.78,-84.91C1160.78,-84.91 1160.78,-103.79 1160.78,-103.79"/>
<polygon fill="black" stroke="black" points="1157.28,-103.79 1160.78,-113.79 1164.28,-103.79 1157.28,-103.79"/>
</g>
<!-- InjectionNames.API_KEY  -->
<g id="node3" class="node">
<title>InjectionNames.API_KEY </title>
<polygon fill="#fb8072" stroke="black" points="2142.97,-214.8 1973.03,-214.8 1973.03,-178.8 2142.97,-178.8 2142.97,-214.8"/>
<text text-anchor="middle" x="2058" y="-192.6" font-family="Times,serif" font-size="14.00">InjectionNames.API_KEY </text>
</g>
<!-- ConfigurationModule&#45;&gt;InjectionNames.API_KEY  -->
<g id="edge2" class="edge">
<title>ConfigurationModule&#45;&gt;InjectionNames.API_KEY </title>
<path fill="none" stroke="black" stroke-dasharray="5,2" d="M1178.4,-121.8C1397.17,-121.8 2058,-121.8 2058,-121.8 2058,-121.8 2058,-168.64 2058,-168.64"/>
<polygon fill="black" stroke="black" points="2054.5,-168.64 2058,-178.64 2061.5,-168.64 2054.5,-168.64"/>
</g>
<!-- InjectionNames.CONNECTION_STRING  -->
<g id="node4" class="node">
<title>InjectionNames.CONNECTION_STRING </title>
<polygon fill="#fb8072" stroke="black" points="1955.19,-214.8 1694.81,-214.8 1694.81,-178.8 1955.19,-178.8 1955.19,-214.8"/>
<text text-anchor="middle" x="1825" y="-192.6" font-family="Times,serif" font-size="14.00">InjectionNames.CONNECTION_STRING </text>
</g>
<!-- ConfigurationModule&#45;&gt;InjectionNames.CONNECTION_STRING  -->
<g id="edge3" class="edge">
<title>ConfigurationModule&#45;&gt;InjectionNames.CONNECTION_STRING </title>
<path fill="none" stroke="black" stroke-dasharray="5,2" d="M1178.3,-128.8C1357.99,-128.8 1825,-128.8 1825,-128.8 1825,-128.8 1825,-168.58 1825,-168.58"/>
<polygon fill="black" stroke="black" points="1821.5,-168.58 1825,-178.58 1828.5,-168.58 1821.5,-168.58"/>
</g>
<!-- InjectionNames.GRPC_CONFIG  -->
<g id="node5" class="node">
<title>InjectionNames.GRPC_CONFIG </title>
<polygon fill="#fb8072" stroke="black" points="1676.82,-214.8 1469.18,-214.8 1469.18,-178.8 1676.82,-178.8 1676.82,-214.8"/>
<text text-anchor="middle" x="1573" y="-192.6" font-family="Times,serif" font-size="14.00">InjectionNames.GRPC_CONFIG </text>
</g>
<!-- ConfigurationModule&#45;&gt;InjectionNames.GRPC_CONFIG  -->
<g id="edge4" class="edge">
<title>ConfigurationModule&#45;&gt;InjectionNames.GRPC_CONFIG </title>
<path fill="none" stroke="black" stroke-dasharray="5,2" d="M1178.21,-135.8C1307.56,-135.8 1573,-135.8 1573,-135.8 1573,-135.8 1573,-168.5 1573,-168.5"/>
<polygon fill="black" stroke="black" points="1569.5,-168.5 1573,-178.5 1576.5,-168.5 1569.5,-168.5"/>
</g>
<!-- InjectionNames.HASH_ROUNDS  -->
<g id="node6" class="node">
<title>InjectionNames.HASH_ROUNDS </title>
<polygon fill="#fb8072" stroke="black" points="1451.32,-214.8 1236.68,-214.8 1236.68,-178.8 1451.32,-178.8 1451.32,-214.8"/>
<text text-anchor="middle" x="1344" y="-192.6" font-family="Times,serif" font-size="14.00">InjectionNames.HASH_ROUNDS </text>
</g>
<!-- ConfigurationModule&#45;&gt;InjectionNames.HASH_ROUNDS  -->
<g id="edge5" class="edge">
<title>ConfigurationModule&#45;&gt;InjectionNames.HASH_ROUNDS </title>
<path fill="none" stroke="black" stroke-dasharray="5,2" d="M1178.31,-142.8C1211.3,-142.8 1243.67,-142.8 1243.67,-142.8 1243.67,-142.8 1243.67,-168.52 1243.67,-168.52"/>
<polygon fill="black" stroke="black" points="1240.17,-168.52 1243.67,-178.52 1247.17,-168.52 1240.17,-168.52"/>
</g>
<!-- InjectionNames.PROJECT_NAME  -->
<g id="node7" class="node">
<title>InjectionNames.PROJECT_NAME </title>
<polygon fill="#fb8072" stroke="black" points="1218.48,-214.8 999.52,-214.8 999.52,-178.8 1218.48,-178.8 1218.48,-214.8"/>
<text text-anchor="middle" x="1109" y="-192.6" font-family="Times,serif" font-size="14.00">InjectionNames.PROJECT_NAME </text>
</g>
<!-- ConfigurationModule&#45;&gt;InjectionNames.PROJECT_NAME  -->
<g id="edge6" class="edge">
<title>ConfigurationModule&#45;&gt;InjectionNames.PROJECT_NAME </title>
<path fill="none" stroke="black" stroke-dasharray="5,2" d="M1109,-149.91C1109,-149.91 1109,-168.79 1109,-168.79"/>
<polygon fill="black" stroke="black" points="1105.5,-168.79 1109,-178.79 1112.5,-168.79 1105.5,-168.79"/>
</g>
<!-- InjectionNames.SECRETS_FROM_ENV  -->
<g id="node8" class="node">
<title>InjectionNames.SECRETS_FROM_ENV </title>
<polygon fill="#fb8072" stroke="black" points="981.99,-214.8 728.01,-214.8 728.01,-178.8 981.99,-178.8 981.99,-214.8"/>
<text text-anchor="middle" x="855" y="-192.6" font-family="Times,serif" font-size="14.00">InjectionNames.SECRETS_FROM_ENV </text>
</g>
<!-- ConfigurationModule&#45;&gt;InjectionNames.SECRETS_FROM_ENV  -->
<g id="edge7" class="edge">
<title>ConfigurationModule&#45;&gt;InjectionNames.SECRETS_FROM_ENV </title>
<path fill="none" stroke="black" stroke-dasharray="5,2" d="M1039.57,-142.8C997.85,-142.8 952.78,-142.8 952.78,-142.8 952.78,-142.8 952.78,-168.52 952.78,-168.52"/>
<polygon fill="black" stroke="black" points="949.28,-168.52 952.78,-178.52 956.28,-168.52 949.28,-168.52"/>
</g>
<!-- InjectionNames.SWAGGER_CONFIG  -->
<g id="node9" class="node">
<title>InjectionNames.SWAGGER_CONFIG </title>
<polygon fill="#fb8072" stroke="black" points="709.97,-214.8 470.03,-214.8 470.03,-178.8 709.97,-178.8 709.97,-214.8"/>
<text text-anchor="middle" x="590" y="-192.6" font-family="Times,serif" font-size="14.00">InjectionNames.SWAGGER_CONFIG </text>
</g>
<!-- ConfigurationModule&#45;&gt;InjectionNames.SWAGGER_CONFIG  -->
<g id="edge8" class="edge">
<title>ConfigurationModule&#45;&gt;InjectionNames.SWAGGER_CONFIG </title>
<path fill="none" stroke="black" stroke-dasharray="5,2" d="M1039.81,-135.8C898.51,-135.8 590,-135.8 590,-135.8 590,-135.8 590,-168.5 590,-168.5"/>
<polygon fill="black" stroke="black" points="586.5,-168.5 590,-178.5 593.5,-168.5 586.5,-168.5"/>
</g>
<!-- InjectionNames.TCP_CONFIG  -->
<g id="node10" class="node">
<title>InjectionNames.TCP_CONFIG </title>
<polygon fill="#fb8072" stroke="black" points="452.43,-214.8 255.57,-214.8 255.57,-178.8 452.43,-178.8 452.43,-214.8"/>
<text text-anchor="middle" x="354" y="-192.6" font-family="Times,serif" font-size="14.00">InjectionNames.TCP_CONFIG </text>
</g>
<!-- ConfigurationModule&#45;&gt;InjectionNames.TCP_CONFIG  -->
<g id="edge9" class="edge">
<title>ConfigurationModule&#45;&gt;InjectionNames.TCP_CONFIG </title>
<path fill="none" stroke="black" stroke-dasharray="5,2" d="M1039.66,-128.8C853.02,-128.8 354,-128.8 354,-128.8 354,-128.8 354,-168.58 354,-168.58"/>
<polygon fill="black" stroke="black" points="350.5,-168.58 354,-178.58 357.5,-168.58 350.5,-168.58"/>
</g>
<!-- InjectionNames.USE_SWAGGER  -->
<g id="node11" class="node">
<title>InjectionNames.USE_SWAGGER </title>
<polygon fill="#fb8072" stroke="black" points="238.3,-214.8 23.7,-214.8 23.7,-178.8 238.3,-178.8 238.3,-214.8"/>
<text text-anchor="middle" x="131" y="-192.6" font-family="Times,serif" font-size="14.00">InjectionNames.USE_SWAGGER </text>
</g>
<!-- ConfigurationModule&#45;&gt;InjectionNames.USE_SWAGGER  -->
<g id="edge10" class="edge">
<title>ConfigurationModule&#45;&gt;InjectionNames.USE_SWAGGER </title>
<path fill="none" stroke="black" stroke-dasharray="5,2" d="M1039.84,-121.8C816.82,-121.8 131,-121.8 131,-121.8 131,-121.8 131,-168.64 131,-168.64"/>
<polygon fill="black" stroke="black" points="127.5,-168.64 131,-178.64 134.5,-168.64 127.5,-168.64"/>
</g>
<!-- SecretManagerService -->
<g id="node12" class="node">
<title>SecretManagerService</title>
<ellipse fill="#fdb462" stroke="black" cx="1022" cy="-66.8" rx="98.38" ry="18"/>
<text text-anchor="middle" x="1022" y="-62.6" font-family="Times,serif" font-size="14.00">SecretManagerService</text>
</g>
<!-- SecretManagerService&#45;&gt;ConfigurationModule -->
<g id="edge11" class="edge">
<title>SecretManagerService&#45;&gt;ConfigurationModule</title>
<path fill="none" stroke="black" d="M1080.2,-81.55C1080.2,-81.55 1080.2,-103.39 1080.2,-103.39"/>
<polygon fill="black" stroke="black" points="1076.7,-103.39 1080.2,-113.39 1083.7,-103.39 1076.7,-103.39"/>
</g>
</g>
</svg>
