<?xml version="1.0" encoding="UTF-8" standalone="no"?>
<!DOCTYPE svg PUBLIC "-//W3C//DTD SVG 1.1//EN"
 "http://www.w3.org/Graphics/SVG/1.1/DTD/svg11.dtd">
<!-- Generated by graphviz version 5.0.0 (20220707.1540)
 -->
<!-- Title: dependencies Pages: 1 -->
<svg width="779pt" height="174pt"
 viewBox="0.00 0.00 779.00 173.80" xmlns="http://www.w3.org/2000/svg" xmlns:xlink="http://www.w3.org/1999/xlink">
<g id="graph0" class="graph" transform="scale(1 1) rotate(0) translate(4 169.8)">
<title>dependencies</title>
<polygon fill="white" stroke="transparent" points="-4,4 -4,-169.8 775,-169.8 775,4 -4,4"/>
<text text-anchor="middle" x="385.5" y="-8.2" font-family="sans-serif" font-size="14.00">dependencies</text>
<g id="clust1" class="cluster">
<title>cluster_AppModule</title>
<polygon fill="none" stroke="black" stroke-dasharray="1,5" points="8,-32.8 8,-157.8 763,-157.8 763,-32.8 8,-32.8"/>
</g>
<g id="clust3" class="cluster">
<title>cluster_AppModule_imports</title>
<polygon fill="none" stroke="black" points="16,-40.8 16,-92.8 755,-92.8 755,-40.8 16,-40.8"/>
</g>
<!-- ClientsModule -->
<g id="node1" class="node">
<title>ClientsModule</title>
<polygon fill="#8dd3c7" stroke="black" points="746.72,-84.8 743.72,-88.8 722.72,-88.8 719.72,-84.8 647.28,-84.8 647.28,-48.8 746.72,-48.8 746.72,-84.8"/>
<text text-anchor="middle" x="697" y="-62.6" font-family="Times,serif" font-size="14.00">ClientsModule</text>
</g>
<!-- AppModule -->
<g id="node7" class="node">
<title>AppModule</title>
<polygon fill="#8dd3c7" stroke="black" points="406.66,-149.8 403.66,-153.8 382.66,-153.8 379.66,-149.8 323.34,-149.8 323.34,-113.8 406.66,-113.8 406.66,-149.8"/>
<text text-anchor="middle" x="365" y="-127.6" font-family="Times,serif" font-size="14.00">AppModule</text>
</g>
<!-- ClientsModule&#45;&gt;AppModule -->
<g id="edge1" class="edge">
<title>ClientsModule&#45;&gt;AppModule</title>
<path fill="none" stroke="black" d="M697,-85.08C697,-106.12 697,-137.8 697,-137.8 697,-137.8 416.71,-137.8 416.71,-137.8"/>
<polygon fill="black" stroke="black" points="416.71,-134.3 406.71,-137.8 416.71,-141.3 416.71,-134.3"/>
</g>
<!-- ConfigurationModule -->
<g id="node2" class="node">
<title>ConfigurationModule</title>
<polygon fill="#8dd3c7" stroke="black" points="629.1,-84.8 626.1,-88.8 605.1,-88.8 602.1,-84.8 490.9,-84.8 490.9,-48.8 629.1,-48.8 629.1,-84.8"/>
<text text-anchor="middle" x="560" y="-62.6" font-family="Times,serif" font-size="14.00">ConfigurationModule</text>
</g>
<!-- ConfigurationModule&#45;&gt;AppModule -->
<g id="edge2" class="edge">
<title>ConfigurationModule&#45;&gt;AppModule</title>
<path fill="none" stroke="black" d="M560,-84.82C560,-102.17 560,-125.8 560,-125.8 560,-125.8 416.83,-125.8 416.83,-125.8"/>
<polygon fill="black" stroke="black" points="416.83,-122.3 406.83,-125.8 416.83,-129.3 416.83,-122.3"/>
</g>
<!-- GuardsModule -->
<g id="node3" class="node">
<title>GuardsModule</title>
<polygon fill="#8dd3c7" stroke="black" points="472.99,-84.8 469.99,-88.8 448.99,-88.8 445.99,-84.8 373.01,-84.8 373.01,-48.8 472.99,-48.8 472.99,-84.8"/>
<text text-anchor="middle" x="423" y="-62.6" font-family="Times,serif" font-size="14.00">GuardsModule</text>
</g>
<!-- GuardsModule&#45;&gt;AppModule -->
<g id="edge3" class="edge">
<title>GuardsModule&#45;&gt;AppModule</title>
<path fill="none" stroke="black" d="M389.92,-84.91C389.92,-84.91 389.92,-103.79 389.92,-103.79"/>
<polygon fill="black" stroke="black" points="386.42,-103.79 389.92,-113.79 393.42,-103.79 386.42,-103.79"/>
</g>
<!-- HealthModule -->
<g id="node4" class="node">
<title>HealthModule</title>
<polygon fill="#8dd3c7" stroke="black" points="355.37,-84.8 352.37,-88.8 331.37,-88.8 328.37,-84.8 258.63,-84.8 258.63,-48.8 355.37,-48.8 355.37,-84.8"/>
<text text-anchor="middle" x="307" y="-62.6" font-family="Times,serif" font-size="14.00">HealthModule</text>
</g>
<!-- HealthModule&#45;&gt;AppModule -->
<g id="edge4" class="edge">
<title>HealthModule&#45;&gt;AppModule</title>
<path fill="none" stroke="black" d="M339.3,-84.91C339.3,-84.91 339.3,-103.79 339.3,-103.79"/>
<polygon fill="black" stroke="black" points="335.8,-103.79 339.3,-113.79 342.8,-103.79 335.8,-103.79"/>
</g>
<!-- LoggingModule -->
<g id="node5" class="node">
<title>LoggingModule</title>
<polygon fill="#8dd3c7" stroke="black" points="240.49,-84.8 237.49,-88.8 216.49,-88.8 213.49,-84.8 133.51,-84.8 133.51,-48.8 240.49,-48.8 240.49,-84.8"/>
<text text-anchor="middle" x="187" y="-62.6" font-family="Times,serif" font-size="14.00">LoggingModule</text>
</g>
<!-- LoggingModule&#45;&gt;AppModule -->
<g id="edge5" class="edge">
<title>LoggingModule&#45;&gt;AppModule</title>
<path fill="none" stroke="black" d="M187,-84.82C187,-102.17 187,-125.8 187,-125.8 187,-125.8 313.27,-125.8 313.27,-125.8"/>
<polygon fill="black" stroke="black" points="313.27,-129.3 323.27,-125.8 313.27,-122.3 313.27,-129.3"/>
</g>
<!-- UsersModule -->
<g id="node6" class="node">
<title>UsersModule</title>
<polygon fill="#8dd3c7" stroke="black" points="115.94,-84.8 112.94,-88.8 91.94,-88.8 88.94,-84.8 24.06,-84.8 24.06,-48.8 115.94,-48.8 115.94,-84.8"/>
<text text-anchor="middle" x="70" y="-62.6" font-family="Times,serif" font-size="14.00">UsersModule</text>
</g>
<!-- UsersModule&#45;&gt;AppModule -->
<g id="edge6" class="edge">
<title>UsersModule&#45;&gt;AppModule</title>
<path fill="none" stroke="black" d="M70,-85.08C70,-106.12 70,-137.8 70,-137.8 70,-137.8 313.05,-137.8 313.05,-137.8"/>
<polygon fill="black" stroke="black" points="313.05,-141.3 323.05,-137.8 313.05,-134.3 313.05,-141.3"/>
</g>
</g>
</svg>
