<?xml version="1.0" encoding="UTF-8" standalone="no"?>
<!DOCTYPE svg PUBLIC "-//W3C//DTD SVG 1.1//EN"
 "http://www.w3.org/Graphics/SVG/1.1/DTD/svg11.dtd">
<!-- Generated by graphviz version 5.0.0 (20220707.1540)
 -->
<!-- Title: dependencies Pages: 1 -->
<svg width="935pt" height="174pt"
 viewBox="0.00 0.00 935.00 173.80" xmlns="http://www.w3.org/2000/svg" xmlns:xlink="http://www.w3.org/1999/xlink">
<g id="graph0" class="graph" transform="scale(1 1) rotate(0) translate(4 169.8)">
<title>dependencies</title>
<polygon fill="white" stroke="transparent" points="-4,4 -4,-169.8 931,-169.8 931,4 -4,4"/>
<text text-anchor="middle" x="463.5" y="-8.2" font-family="sans-serif" font-size="14.00">dependencies</text>
<g id="clust1" class="cluster">
<title>cluster_AppModule</title>
<polygon fill="none" stroke="black" stroke-dasharray="1,5" points="8,-32.8 8,-157.8 919,-157.8 919,-32.8 8,-32.8"/>
</g>
<g id="clust3" class="cluster">
<title>cluster_AppModule_imports</title>
<polygon fill="none" stroke="black" points="16,-40.8 16,-92.8 911,-92.8 911,-40.8 16,-40.8"/>
</g>
<!-- ClientsModule -->
<g id="node1" class="node">
<title>ClientsModule</title>
<polygon fill="#8dd3c7" stroke="black" points="902.72,-84.8 899.72,-88.8 878.72,-88.8 875.72,-84.8 803.28,-84.8 803.28,-48.8 902.72,-48.8 902.72,-84.8"/>
<text text-anchor="middle" x="853" y="-62.6" font-family="Times,serif" font-size="14.00">ClientsModule</text>
</g>
<!-- AppModule -->
<g id="node8" class="node">
<title>AppModule</title>
<polygon fill="#8dd3c7" stroke="black" points="483.66,-149.8 480.66,-153.8 459.66,-153.8 456.66,-149.8 400.34,-149.8 400.34,-113.8 483.66,-113.8 483.66,-149.8"/>
<text text-anchor="middle" x="442" y="-127.6" font-family="Times,serif" font-size="14.00">AppModule</text>
</g>
<!-- ClientsModule&#45;&gt;AppModule -->
<g id="edge1" class="edge">
<title>ClientsModule&#45;&gt;AppModule</title>
<path fill="none" stroke="black" d="M853,-85.09C853,-107.01 853,-140.8 853,-140.8 853,-140.8 493.67,-140.8 493.67,-140.8"/>
<polygon fill="black" stroke="black" points="493.67,-137.3 483.67,-140.8 493.67,-144.3 493.67,-137.3"/>
</g>
<!-- ConfigurationModule -->
<g id="node2" class="node">
<title>ConfigurationModule</title>
<polygon fill="#8dd3c7" stroke="black" points="785.1,-84.8 782.1,-88.8 761.1,-88.8 758.1,-84.8 646.9,-84.8 646.9,-48.8 785.1,-48.8 785.1,-84.8"/>
<text text-anchor="middle" x="716" y="-62.6" font-family="Times,serif" font-size="14.00">ConfigurationModule</text>
</g>
<!-- ConfigurationModule&#45;&gt;AppModule -->
<g id="edge2" class="edge">
<title>ConfigurationModule&#45;&gt;AppModule</title>
<path fill="none" stroke="black" d="M716,-84.91C716,-104.14 716,-131.8 716,-131.8 716,-131.8 493.91,-131.8 493.91,-131.8"/>
<polygon fill="black" stroke="black" points="493.91,-128.3 483.91,-131.8 493.91,-135.3 493.91,-128.3"/>
</g>
<!-- GuardsModule -->
<g id="node3" class="node">
<title>GuardsModule</title>
<polygon fill="#8dd3c7" stroke="black" points="628.99,-84.8 625.99,-88.8 604.99,-88.8 601.99,-84.8 529.01,-84.8 529.01,-48.8 628.99,-48.8 628.99,-84.8"/>
<text text-anchor="middle" x="579" y="-62.6" font-family="Times,serif" font-size="14.00">GuardsModule</text>
</g>
<!-- GuardsModule&#45;&gt;AppModule -->
<g id="edge3" class="edge">
<title>GuardsModule&#45;&gt;AppModule</title>
<path fill="none" stroke="black" d="M579,-84.83C579,-101.2 579,-122.8 579,-122.8 579,-122.8 493.85,-122.8 493.85,-122.8"/>
<polygon fill="black" stroke="black" points="493.85,-119.3 483.85,-122.8 493.85,-126.3 493.85,-119.3"/>
</g>
<!-- HealthChecksModule -->
<g id="node4" class="node">
<title>HealthChecksModule</title>
<polygon fill="#8dd3c7" stroke="black" points="511.08,-84.8 508.08,-88.8 487.08,-88.8 484.08,-84.8 372.92,-84.8 372.92,-48.8 511.08,-48.8 511.08,-84.8"/>
<text text-anchor="middle" x="442" y="-62.6" font-family="Times,serif" font-size="14.00">HealthChecksModule</text>
</g>
<!-- HealthChecksModule&#45;&gt;AppModule -->
<g id="edge4" class="edge">
<title>HealthChecksModule&#45;&gt;AppModule</title>
<path fill="none" stroke="black" d="M442,-84.91C442,-84.91 442,-103.79 442,-103.79"/>
<polygon fill="black" stroke="black" points="438.5,-103.79 442,-113.79 445.5,-103.79 438.5,-103.79"/>
</g>
<!-- HealthModule -->
<g id="node5" class="node">
<title>HealthModule</title>
<polygon fill="#8dd3c7" stroke="black" points="355.37,-84.8 352.37,-88.8 331.37,-88.8 328.37,-84.8 258.63,-84.8 258.63,-48.8 355.37,-48.8 355.37,-84.8"/>
<text text-anchor="middle" x="307" y="-62.6" font-family="Times,serif" font-size="14.00">HealthModule</text>
</g>
<!-- HealthModule&#45;&gt;AppModule -->
<g id="edge5" class="edge">
<title>HealthModule&#45;&gt;AppModule</title>
<path fill="none" stroke="black" d="M307,-84.83C307,-101.2 307,-122.8 307,-122.8 307,-122.8 390.03,-122.8 390.03,-122.8"/>
<polygon fill="black" stroke="black" points="390.03,-126.3 400.03,-122.8 390.03,-119.3 390.03,-126.3"/>
</g>
<!-- ServicesModule -->
<g id="node6" class="node">
<title>ServicesModule</title>
<polygon fill="#8dd3c7" stroke="black" points="240.48,-84.8 237.48,-88.8 216.48,-88.8 213.48,-84.8 133.52,-84.8 133.52,-48.8 240.48,-48.8 240.48,-84.8"/>
<text text-anchor="middle" x="187" y="-62.6" font-family="Times,serif" font-size="14.00">ServicesModule</text>
</g>
<!-- ServicesModule&#45;&gt;AppModule -->
<g id="edge6" class="edge">
<title>ServicesModule&#45;&gt;AppModule</title>
<path fill="none" stroke="black" d="M187,-84.91C187,-104.14 187,-131.8 187,-131.8 187,-131.8 390.18,-131.8 390.18,-131.8"/>
<polygon fill="black" stroke="black" points="390.18,-135.3 400.18,-131.8 390.18,-128.3 390.18,-135.3"/>
</g>
<!-- UsersModule -->
<g id="node7" class="node">
<title>UsersModule</title>
<polygon fill="#8dd3c7" stroke="black" points="115.94,-84.8 112.94,-88.8 91.94,-88.8 88.94,-84.8 24.06,-84.8 24.06,-48.8 115.94,-48.8 115.94,-84.8"/>
<text text-anchor="middle" x="70" y="-62.6" font-family="Times,serif" font-size="14.00">UsersModule</text>
</g>
<!-- UsersModule&#45;&gt;AppModule -->
<g id="edge7" class="edge">
<title>UsersModule&#45;&gt;AppModule</title>
<path fill="none" stroke="black" d="M70,-85.09C70,-107.01 70,-140.8 70,-140.8 70,-140.8 390.05,-140.8 390.05,-140.8"/>
<polygon fill="black" stroke="black" points="390.05,-144.3 400.05,-140.8 390.05,-137.3 390.05,-144.3"/>
</g>
</g>
</svg>
