<?xml version="1.0" encoding="UTF-8" standalone="no"?>
<!DOCTYPE svg PUBLIC "-//W3C//DTD SVG 1.1//EN"
 "http://www.w3.org/Graphics/SVG/1.1/DTD/svg11.dtd">
<!-- Generated by graphviz version 5.0.0 (20220707.1540)
 -->
<!-- Title: dependencies Pages: 1 -->
<svg width="314pt" height="174pt"
 viewBox="0.00 0.00 314.00 173.80" xmlns="http://www.w3.org/2000/svg" xmlns:xlink="http://www.w3.org/1999/xlink">
<g id="graph0" class="graph" transform="scale(1 1) rotate(0) translate(4 169.8)">
<title>dependencies</title>
<polygon fill="white" stroke="transparent" points="-4,4 -4,-169.8 310,-169.8 310,4 -4,4"/>
<text text-anchor="middle" x="153" y="-8.2" font-family="sans-serif" font-size="14.00">dependencies</text>
<g id="clust1" class="cluster">
<title>cluster_PipesModule</title>
<polygon fill="none" stroke="black" stroke-dasharray="1,5" points="8,-32.8 8,-157.8 298,-157.8 298,-32.8 8,-32.8"/>
</g>
<g id="clust6" class="cluster">
<title>cluster_PipesModule_providers</title>
<polygon fill="none" stroke="black" points="178,-40.8 178,-92.8 290,-92.8 290,-40.8 178,-40.8"/>
</g>
<g id="clust3" class="cluster">
<title>cluster_PipesModule_imports</title>
<polygon fill="none" stroke="black" points="16,-40.8 16,-92.8 170,-92.8 170,-40.8 16,-40.8"/>
</g>
<!-- ConfigurationModule -->
<g id="node1" class="node">
<title>ConfigurationModule</title>
<polygon fill="#8dd3c7" stroke="black" points="162.1,-84.8 159.1,-88.8 138.1,-88.8 135.1,-84.8 23.9,-84.8 23.9,-48.8 162.1,-48.8 162.1,-84.8"/>
<text text-anchor="middle" x="93" y="-62.6" font-family="Times,serif" font-size="14.00">ConfigurationModule</text>
</g>
<!-- PipesModule -->
<g id="node2" class="node">
<title>PipesModule</title>
<polygon fill="#8dd3c7" stroke="black" points="207.89,-149.8 204.89,-153.8 183.89,-153.8 180.89,-149.8 118.11,-149.8 118.11,-113.8 207.89,-113.8 207.89,-149.8"/>
<text text-anchor="middle" x="163" y="-127.6" font-family="Times,serif" font-size="14.00">PipesModule</text>
</g>
<!-- ConfigurationModule&#45;&gt;PipesModule -->
<g id="edge1" class="edge">
<title>ConfigurationModule&#45;&gt;PipesModule</title>
<path fill="none" stroke="black" d="M140.05,-84.91C140.05,-84.91 140.05,-103.79 140.05,-103.79"/>
<polygon fill="black" stroke="black" points="136.55,-103.79 140.05,-113.79 143.55,-103.79 136.55,-103.79"/>
</g>
<!-- HashPipe -->
<g id="node3" class="node">
<title>HashPipe</title>
<ellipse fill="#fdb462" stroke="black" cx="234" cy="-66.8" rx="48.1" ry="18"/>
<text text-anchor="middle" x="234" y="-62.6" font-family="Times,serif" font-size="14.00">HashPipe</text>
</g>
<!-- HashPipe&#45;&gt;PipesModule -->
<g id="edge2" class="edge">
<title>HashPipe&#45;&gt;PipesModule</title>
<path fill="none" stroke="black" d="M196.95,-78.42C196.95,-78.42 196.95,-103.65 196.95,-103.65"/>
<polygon fill="black" stroke="black" points="193.45,-103.65 196.95,-113.65 200.45,-103.65 193.45,-103.65"/>
</g>
</g>
</svg>
