<?xml version="1.0" encoding="UTF-8" standalone="no"?>
<!DOCTYPE svg PUBLIC "-//W3C//DTD SVG 1.1//EN"
 "http://www.w3.org/Graphics/SVG/1.1/DTD/svg11.dtd">
<!-- Generated by graphviz version 5.0.0 (20220707.1540)
 -->
<!-- Title: dependencies Pages: 1 -->
<svg width="752pt" height="247pt"
 viewBox="0.00 0.00 752.00 246.80" xmlns="http://www.w3.org/2000/svg" xmlns:xlink="http://www.w3.org/1999/xlink">
<g id="graph0" class="graph" transform="scale(1 1) rotate(0) translate(4 242.8)">
<title>dependencies</title>
<polygon fill="white" stroke="transparent" points="-4,4 -4,-242.8 748,-242.8 748,4 -4,4"/>
<text text-anchor="middle" x="372" y="-8.2" font-family="sans-serif" font-size="14.00">dependencies</text>
<g id="clust1" class="cluster">
<title>cluster_GuardsModule</title>
<polygon fill="none" stroke="black" stroke-dasharray="1,5" points="8,-32.8 8,-230.8 736,-230.8 736,-32.8 8,-32.8"/>
</g>
<g id="clust4" class="cluster">
<title>cluster_GuardsModule_exports</title>
<polygon fill="none" stroke="black" points="150,-170.8 150,-222.8 572,-222.8 572,-170.8 150,-170.8"/>
</g>
<g id="clust6" class="cluster">
<title>cluster_GuardsModule_providers</title>
<polygon fill="none" stroke="black" points="178,-40.8 178,-92.8 728,-92.8 728,-40.8 178,-40.8"/>
</g>
<g id="clust3" class="cluster">
<title>cluster_GuardsModule_imports</title>
<polygon fill="none" stroke="black" points="16,-40.8 16,-92.8 170,-92.8 170,-40.8 16,-40.8"/>
</g>
<!-- ConfigurationModule -->
<g id="node1" class="node">
<title>ConfigurationModule</title>
<polygon fill="#8dd3c7" stroke="black" points="162.1,-84.8 159.1,-88.8 138.1,-88.8 135.1,-84.8 23.9,-84.8 23.9,-48.8 162.1,-48.8 162.1,-84.8"/>
<text text-anchor="middle" x="93" y="-62.6" font-family="Times,serif" font-size="14.00">ConfigurationModule</text>
</g>
<!-- GuardsModule -->
<g id="node2" class="node">
<title>GuardsModule</title>
<polygon fill="#8dd3c7" stroke="black" points="407.99,-149.8 404.99,-153.8 383.99,-153.8 380.99,-149.8 308.01,-149.8 308.01,-113.8 407.99,-113.8 407.99,-149.8"/>
<text text-anchor="middle" x="358" y="-127.6" font-family="Times,serif" font-size="14.00">GuardsModule</text>
</g>
<!-- ConfigurationModule&#45;&gt;GuardsModule -->
<g id="edge1" class="edge">
<title>ConfigurationModule&#45;&gt;GuardsModule</title>
<path fill="none" stroke="black" d="M90.83,-84.82C90.83,-102.17 90.83,-125.8 90.83,-125.8 90.83,-125.8 297.75,-125.8 297.75,-125.8"/>
<polygon fill="black" stroke="black" points="297.75,-129.3 307.75,-125.8 297.75,-122.3 297.75,-129.3"/>
</g>
<!-- ApiKeyGrpcGuard  -->
<g id="node3" class="node">
<title>ApiKeyGrpcGuard </title>
<polygon fill="#fb8072" stroke="black" points="564.3,-214.8 437.7,-214.8 437.7,-178.8 564.3,-178.8 564.3,-214.8"/>
<text text-anchor="middle" x="501" y="-192.6" font-family="Times,serif" font-size="14.00">ApiKeyGrpcGuard </text>
</g>
<!-- GuardsModule&#45;&gt;ApiKeyGrpcGuard  -->
<g id="edge2" class="edge">
<title>GuardsModule&#45;&gt;ApiKeyGrpcGuard </title>
<path fill="none" stroke="black" stroke-dasharray="5,2" d="M408.1,-137.8C443.53,-137.8 484.76,-137.8 484.76,-137.8 484.76,-137.8 484.76,-168.78 484.76,-168.78"/>
<polygon fill="black" stroke="black" points="481.26,-168.78 484.76,-178.78 488.26,-168.78 481.26,-168.78"/>
</g>
<!-- ApiKeyHttpGuard  -->
<g id="node4" class="node">
<title>ApiKeyHttpGuard </title>
<polygon fill="#fb8072" stroke="black" points="419.7,-214.8 296.3,-214.8 296.3,-178.8 419.7,-178.8 419.7,-214.8"/>
<text text-anchor="middle" x="358" y="-192.6" font-family="Times,serif" font-size="14.00">ApiKeyHttpGuard </text>
</g>
<!-- GuardsModule&#45;&gt;ApiKeyHttpGuard  -->
<g id="edge3" class="edge">
<title>GuardsModule&#45;&gt;ApiKeyHttpGuard </title>
<path fill="none" stroke="black" stroke-dasharray="5,2" d="M358,-149.91C358,-149.91 358,-168.79 358,-168.79"/>
<polygon fill="black" stroke="black" points="354.5,-168.79 358,-178.79 361.5,-168.79 354.5,-168.79"/>
</g>
<!-- ApiKeyTcpGuard  -->
<g id="node5" class="node">
<title>ApiKeyTcpGuard </title>
<polygon fill="#fb8072" stroke="black" points="278.08,-214.8 157.92,-214.8 157.92,-178.8 278.08,-178.8 278.08,-214.8"/>
<text text-anchor="middle" x="218" y="-192.6" font-family="Times,serif" font-size="14.00">ApiKeyTcpGuard </text>
</g>
<!-- GuardsModule&#45;&gt;ApiKeyTcpGuard  -->
<g id="edge4" class="edge">
<title>GuardsModule&#45;&gt;ApiKeyTcpGuard </title>
<path fill="none" stroke="black" stroke-dasharray="5,2" d="M307.95,-137.8C272.88,-137.8 232.27,-137.8 232.27,-137.8 232.27,-137.8 232.27,-168.78 232.27,-168.78"/>
<polygon fill="black" stroke="black" points="228.77,-168.78 232.27,-178.78 235.77,-168.78 228.77,-168.78"/>
</g>
<!-- ApiKeyGrpcGuard -->
<g id="node6" class="node">
<title>ApiKeyGrpcGuard</title>
<ellipse fill="#fdb462" stroke="black" cx="635" cy="-66.8" rx="85.1" ry="18"/>
<text text-anchor="middle" x="635" y="-62.6" font-family="Times,serif" font-size="14.00">ApiKeyGrpcGuard</text>
</g>
<!-- ApiKeyGrpcGuard&#45;&gt;GuardsModule -->
<g id="edge5" class="edge">
<title>ApiKeyGrpcGuard&#45;&gt;GuardsModule</title>
<path fill="none" stroke="black" d="M557.18,-74.51C557.18,-90.51 557.18,-125.8 557.18,-125.8 557.18,-125.8 418,-125.8 418,-125.8"/>
<polygon fill="black" stroke="black" points="418,-122.3 408,-125.8 418,-129.3 418,-122.3"/>
</g>
<!-- ApiKeyHttpGuard -->
<g id="node7" class="node">
<title>ApiKeyHttpGuard</title>
<ellipse fill="#fdb462" stroke="black" cx="449" cy="-66.8" rx="82.82" ry="18"/>
<text text-anchor="middle" x="449" y="-62.6" font-family="Times,serif" font-size="14.00">ApiKeyHttpGuard</text>
</g>
<!-- ApiKeyHttpGuard&#45;&gt;GuardsModule -->
<g id="edge6" class="edge">
<title>ApiKeyHttpGuard&#45;&gt;GuardsModule</title>
<path fill="none" stroke="black" d="M387.04,-79.03C387.04,-79.03 387.04,-103.48 387.04,-103.48"/>
<polygon fill="black" stroke="black" points="383.54,-103.48 387.04,-113.48 390.54,-103.48 383.54,-103.48"/>
</g>
<!-- ApiKeyTcpGuard -->
<g id="node8" class="node">
<title>ApiKeyTcpGuard</title>
<ellipse fill="#fdb462" stroke="black" cx="267" cy="-66.8" rx="80.51" ry="18"/>
<text text-anchor="middle" x="267" y="-62.6" font-family="Times,serif" font-size="14.00">ApiKeyTcpGuard</text>
</g>
<!-- ApiKeyTcpGuard&#45;&gt;GuardsModule -->
<g id="edge7" class="edge">
<title>ApiKeyTcpGuard&#45;&gt;GuardsModule</title>
<path fill="none" stroke="black" d="M327.88,-78.72C327.88,-78.72 327.88,-103.57 327.88,-103.57"/>
<polygon fill="black" stroke="black" points="324.38,-103.57 327.88,-113.57 331.38,-103.57 324.38,-103.57"/>
</g>
</g>
</svg>
