<?xml version="1.0" encoding="UTF-8" standalone="no"?>
<!DOCTYPE svg PUBLIC "-//W3C//DTD SVG 1.1//EN"
 "http://www.w3.org/Graphics/SVG/1.1/DTD/svg11.dtd">
<!-- Generated by graphviz version 5.0.0 (20220707.1540)
 -->
<!-- Title: dependencies Pages: 1 -->
<svg width="350pt" height="174pt"
 viewBox="0.00 0.00 350.00 173.80" xmlns="http://www.w3.org/2000/svg" xmlns:xlink="http://www.w3.org/1999/xlink">
<g id="graph0" class="graph" transform="scale(1 1) rotate(0) translate(4 169.8)">
<title>dependencies</title>
<polygon fill="white" stroke="transparent" points="-4,4 -4,-169.8 346,-169.8 346,4 -4,4"/>
<text text-anchor="middle" x="171" y="-8.2" font-family="sans-serif" font-size="14.00">dependencies</text>
<g id="clust1" class="cluster">
<title>cluster_HealthModule</title>
<polygon fill="none" stroke="black" stroke-dasharray="1,5" points="8,-32.8 8,-157.8 334,-157.8 334,-32.8 8,-32.8"/>
</g>
<g id="clust3" class="cluster">
<title>cluster_HealthModule_imports</title>
<polygon fill="none" stroke="black" points="16,-40.8 16,-92.8 326,-92.8 326,-40.8 16,-40.8"/>
</g>
<!-- ConfigurationModule -->
<g id="node1" class="node">
<title>ConfigurationModule</title>
<polygon fill="#8dd3c7" stroke="black" points="318.1,-84.8 315.1,-88.8 294.1,-88.8 291.1,-84.8 179.9,-84.8 179.9,-48.8 318.1,-48.8 318.1,-84.8"/>
<text text-anchor="middle" x="249" y="-62.6" font-family="Times,serif" font-size="14.00">ConfigurationModule</text>
</g>
<!-- HealthModule -->
<g id="node3" class="node">
<title>HealthModule</title>
<polygon fill="#8dd3c7" stroke="black" points="219.37,-149.8 216.37,-153.8 195.37,-153.8 192.37,-149.8 122.63,-149.8 122.63,-113.8 219.37,-113.8 219.37,-149.8"/>
<text text-anchor="middle" x="171" y="-127.6" font-family="Times,serif" font-size="14.00">HealthModule</text>
</g>
<!-- ConfigurationModule&#45;&gt;HealthModule -->
<g id="edge1" class="edge">
<title>ConfigurationModule&#45;&gt;HealthModule</title>
<path fill="none" stroke="black" d="M199.69,-84.91C199.69,-84.91 199.69,-103.79 199.69,-103.79"/>
<polygon fill="black" stroke="black" points="196.19,-103.79 199.69,-113.79 203.19,-103.79 196.19,-103.79"/>
</g>
<!-- HealthChecksModule -->
<g id="node2" class="node">
<title>HealthChecksModule</title>
<polygon fill="#8dd3c7" stroke="black" points="162.08,-84.8 159.08,-88.8 138.08,-88.8 135.08,-84.8 23.92,-84.8 23.92,-48.8 162.08,-48.8 162.08,-84.8"/>
<text text-anchor="middle" x="93" y="-62.6" font-family="Times,serif" font-size="14.00">HealthChecksModule</text>
</g>
<!-- HealthChecksModule&#45;&gt;HealthModule -->
<g id="edge2" class="edge">
<title>HealthChecksModule&#45;&gt;HealthModule</title>
<path fill="none" stroke="black" d="M142.3,-84.91C142.3,-84.91 142.3,-103.79 142.3,-103.79"/>
<polygon fill="black" stroke="black" points="138.8,-103.79 142.3,-113.79 145.8,-103.79 138.8,-103.79"/>
</g>
</g>
</svg>
