<?xml version="1.0" encoding="UTF-8" standalone="no"?>
<!DOCTYPE svg PUBLIC "-//W3C//DTD SVG 1.1//EN"
 "http://www.w3.org/Graphics/SVG/1.1/DTD/svg11.dtd">
<!-- Generated by graphviz version 5.0.0 (20220707.1540)
 -->
<!-- Title: dependencies Pages: 1 -->
<svg width="698pt" height="185pt"
 viewBox="0.00 0.00 698.00 184.80" xmlns="http://www.w3.org/2000/svg" xmlns:xlink="http://www.w3.org/1999/xlink">
<g id="graph0" class="graph" transform="scale(1 1) rotate(0) translate(4 180.8)">
<title>dependencies</title>
<polygon fill="white" stroke="transparent" points="-4,4 -4,-180.8 694,-180.8 694,4 -4,4"/>
<text text-anchor="middle" x="345" y="-8.2" font-family="sans-serif" font-size="14.00">dependencies</text>
<g id="clust1" class="cluster">
<title>cluster_AppModule</title>
<polygon fill="none" stroke="black" stroke-dasharray="1,5" points="8,-32.8 8,-160.8 256,-160.8 256,-32.8 8,-32.8"/>
</g>
<g id="clust3" class="cluster">
<title>cluster_AppModule_imports</title>
<polygon fill="none" stroke="black" points="16,-40.8 16,-92.8 248,-92.8 248,-40.8 16,-40.8"/>
</g>
<g id="clust7" class="cluster">
<title>cluster_ServicesModule</title>
<polygon fill="none" stroke="black" stroke-dasharray="1,5" points="264,-100.8 264,-168.8 682,-168.8 682,-100.8 264,-100.8"/>
</g>
<g id="clust10" class="cluster">
<title>cluster_ServicesModule_exports</title>
<polygon fill="none" stroke="black" points="504,-108.8 504,-160.8 674,-160.8 674,-108.8 504,-108.8"/>
</g>
<g id="clust12" class="cluster">
<title>cluster_ServicesModule_providers</title>
<polygon fill="none" stroke="black" points="272,-108.8 272,-160.8 496,-160.8 496,-108.8 272,-108.8"/>
</g>
<!-- ServicesModule -->
<g id="node1" class="node">
<title>ServicesModule</title>
<polygon fill="#8dd3c7" stroke="black" points="240.48,-84.8 237.48,-88.8 216.48,-88.8 213.48,-84.8 133.52,-84.8 133.52,-48.8 240.48,-48.8 240.48,-84.8"/>
<text text-anchor="middle" x="187" y="-62.6" font-family="Times,serif" font-size="14.00">ServicesModule</text>
</g>
<!-- AppModule -->
<g id="node3" class="node">
<title>AppModule</title>
<polygon fill="#8dd3c7" stroke="black" points="169.66,-152.8 166.66,-156.8 145.66,-156.8 142.66,-152.8 86.34,-152.8 86.34,-116.8 169.66,-116.8 169.66,-152.8"/>
<text text-anchor="middle" x="128" y="-130.6" font-family="Times,serif" font-size="14.00">AppModule</text>
</g>
<!-- ServicesModule&#45;&gt;AppModule -->
<g id="edge1" class="edge">
<title>ServicesModule&#45;&gt;AppModule</title>
<path fill="none" stroke="black" d="M151.67,-85.02C151.67,-85.02 151.67,-106.53 151.67,-106.53"/>
<polygon fill="black" stroke="black" points="148.17,-106.53 151.67,-116.53 155.17,-106.53 148.17,-106.53"/>
</g>
<!-- MongodbConfigService  -->
<g id="node4" class="node">
<title>MongodbConfigService </title>
<polygon fill="#fb8072" stroke="black" points="666.32,-152.8 511.68,-152.8 511.68,-116.8 666.32,-116.8 666.32,-152.8"/>
<text text-anchor="middle" x="589" y="-130.6" font-family="Times,serif" font-size="14.00">MongodbConfigService </text>
</g>
<!-- ServicesModule&#45;&gt;MongodbConfigService  -->
<g id="edge3" class="edge">
<title>ServicesModule&#45;&gt;MongodbConfigService </title>
<path fill="none" stroke="black" stroke-dasharray="5,2" d="M240.8,-66.8C350.34,-66.8 589,-66.8 589,-66.8 589,-66.8 589,-106.58 589,-106.58"/>
<polygon fill="black" stroke="black" points="585.5,-106.58 589,-116.58 592.5,-106.58 585.5,-106.58"/>
</g>
<!-- UsersModule -->
<g id="node2" class="node">
<title>UsersModule</title>
<polygon fill="#8dd3c7" stroke="black" points="115.94,-84.8 112.94,-88.8 91.94,-88.8 88.94,-84.8 24.06,-84.8 24.06,-48.8 115.94,-48.8 115.94,-84.8"/>
<text text-anchor="middle" x="70" y="-62.6" font-family="Times,serif" font-size="14.00">UsersModule</text>
</g>
<!-- UsersModule&#45;&gt;AppModule -->
<g id="edge2" class="edge">
<title>UsersModule&#45;&gt;AppModule</title>
<path fill="none" stroke="black" d="M100.94,-85.02C100.94,-85.02 100.94,-106.53 100.94,-106.53"/>
<polygon fill="black" stroke="black" points="97.44,-106.53 100.94,-116.53 104.44,-106.53 97.44,-106.53"/>
</g>
<!-- MongodbConfigService -->
<g id="node5" class="node">
<title>MongodbConfigService</title>
<ellipse fill="#fdb462" stroke="black" cx="384" cy="-134.8" rx="104.25" ry="18"/>
<text text-anchor="middle" x="384" y="-130.6" font-family="Times,serif" font-size="14.00">MongodbConfigService</text>
</g>
<!-- MongodbConfigService&#45;&gt;ServicesModule -->
<g id="edge4" class="edge">
<title>MongodbConfigService&#45;&gt;ServicesModule</title>
<path fill="none" stroke="black" d="M279.45,-134.8C240.31,-134.8 205.16,-134.8 205.16,-134.8 205.16,-134.8 205.16,-95.02 205.16,-95.02"/>
<polygon fill="black" stroke="black" points="208.66,-95.02 205.16,-85.02 201.66,-95.02 208.66,-95.02"/>
</g>
</g>
</svg>
