<?xml version="1.0" encoding="UTF-8" standalone="no"?>
<!DOCTYPE svg PUBLIC "-//W3C//DTD SVG 1.1//EN"
 "http://www.w3.org/Graphics/SVG/1.1/DTD/svg11.dtd">
<!-- Generated by graphviz version 5.0.0 (20220707.1540)
 -->
<!-- Title: dependencies Pages: 1 -->
<svg width="1118pt" height="247pt"
 viewBox="0.00 0.00 1118.00 246.80" xmlns="http://www.w3.org/2000/svg" xmlns:xlink="http://www.w3.org/1999/xlink">
<g id="graph0" class="graph" transform="scale(1 1) rotate(0) translate(4 242.8)">
<title>dependencies</title>
<polygon fill="white" stroke="transparent" points="-4,4 -4,-242.8 1114,-242.8 1114,4 -4,4"/>
<text text-anchor="middle" x="555" y="-8.2" font-family="sans-serif" font-size="14.00">dependencies</text>
<g id="clust1" class="cluster">
<title>cluster_ClientsModule</title>
<polygon fill="none" stroke="black" stroke-dasharray="1,5" points="8,-32.8 8,-230.8 1102,-230.8 1102,-32.8 8,-32.8"/>
</g>
<g id="clust3" class="cluster">
<title>cluster_ClientsModule_imports</title>
<polygon fill="none" stroke="black" points="472,-40.8 472,-92.8 626,-92.8 626,-40.8 472,-40.8"/>
</g>
<g id="clust4" class="cluster">
<title>cluster_ClientsModule_exports</title>
<polygon fill="none" stroke="black" points="16,-170.8 16,-222.8 1094,-222.8 1094,-170.8 16,-170.8"/>
</g>
<!-- ConfigurationModule -->
<g id="node1" class="node">
<title>ConfigurationModule</title>
<polygon fill="#8dd3c7" stroke="black" points="618.1,-84.8 615.1,-88.8 594.1,-88.8 591.1,-84.8 479.9,-84.8 479.9,-48.8 618.1,-48.8 618.1,-84.8"/>
<text text-anchor="middle" x="549" y="-62.6" font-family="Times,serif" font-size="14.00">ConfigurationModule</text>
</g>
<!-- ClientsModule -->
<g id="node2" class="node">
<title>ClientsModule</title>
<polygon fill="#8dd3c7" stroke="black" points="598.72,-149.8 595.72,-153.8 574.72,-153.8 571.72,-149.8 499.28,-149.8 499.28,-113.8 598.72,-113.8 598.72,-149.8"/>
<text text-anchor="middle" x="549" y="-127.6" font-family="Times,serif" font-size="14.00">ClientsModule</text>
</g>
<!-- ConfigurationModule&#45;&gt;ClientsModule -->
<g id="edge1" class="edge">
<title>ConfigurationModule&#45;&gt;ClientsModule</title>
<path fill="none" stroke="black" d="M549,-84.91C549,-84.91 549,-103.79 549,-103.79"/>
<polygon fill="black" stroke="black" points="545.5,-103.79 549,-113.79 552.5,-103.79 545.5,-103.79"/>
</g>
<!-- InjectionNames.CLIENT_GRPC_PROXY  -->
<g id="node3" class="node">
<title>InjectionNames.CLIENT_GRPC_PROXY </title>
<polygon fill="#fb8072" stroke="black" points="1085.93,-214.8 826.07,-214.8 826.07,-178.8 1085.93,-178.8 1085.93,-214.8"/>
<text text-anchor="middle" x="956" y="-192.6" font-family="Times,serif" font-size="14.00">InjectionNames.CLIENT_GRPC_PROXY </text>
</g>
<!-- ClientsModule&#45;&gt;InjectionNames.CLIENT_GRPC_PROXY  -->
<g id="edge2" class="edge">
<title>ClientsModule&#45;&gt;InjectionNames.CLIENT_GRPC_PROXY </title>
<path fill="none" stroke="black" stroke-dasharray="5,2" d="M598.91,-131.8C707.59,-131.8 956,-131.8 956,-131.8 956,-131.8 956,-168.69 956,-168.69"/>
<polygon fill="black" stroke="black" points="952.5,-168.69 956,-178.69 959.5,-168.69 952.5,-168.69"/>
</g>
<!-- InjectionNames.CLIENT_TCP_PROXY  -->
<g id="node4" class="node">
<title>InjectionNames.CLIENT_TCP_PROXY </title>
<polygon fill="#fb8072" stroke="black" points="808.03,-214.8 559.97,-214.8 559.97,-178.8 808.03,-178.8 808.03,-214.8"/>
<text text-anchor="middle" x="684" y="-192.6" font-family="Times,serif" font-size="14.00">InjectionNames.CLIENT_TCP_PROXY </text>
</g>
<!-- ClientsModule&#45;&gt;InjectionNames.CLIENT_TCP_PROXY  -->
<g id="edge3" class="edge">
<title>ClientsModule&#45;&gt;InjectionNames.CLIENT_TCP_PROXY </title>
<path fill="none" stroke="black" stroke-dasharray="5,2" d="M579.17,-149.91C579.17,-149.91 579.17,-168.79 579.17,-168.79"/>
<polygon fill="black" stroke="black" points="575.67,-168.79 579.17,-178.79 582.67,-168.79 575.67,-168.79"/>
</g>
<!-- InjectionNames.GRPC_USERS_CLIENT  -->
<g id="node5" class="node">
<title>InjectionNames.GRPC_USERS_CLIENT </title>
<polygon fill="#fb8072" stroke="black" points="541.55,-214.8 286.45,-214.8 286.45,-178.8 541.55,-178.8 541.55,-214.8"/>
<text text-anchor="middle" x="414" y="-192.6" font-family="Times,serif" font-size="14.00">InjectionNames.GRPC_USERS_CLIENT </text>
</g>
<!-- ClientsModule&#45;&gt;InjectionNames.GRPC_USERS_CLIENT  -->
<g id="edge4" class="edge">
<title>ClientsModule&#45;&gt;InjectionNames.GRPC_USERS_CLIENT </title>
<path fill="none" stroke="black" stroke-dasharray="5,2" d="M520.58,-149.91C520.58,-149.91 520.58,-168.79 520.58,-168.79"/>
<polygon fill="black" stroke="black" points="517.08,-168.79 520.58,-178.79 524.08,-168.79 517.08,-168.79"/>
</g>
<!-- InjectionNames.TCP_USERS_CLIENT  -->
<g id="node6" class="node">
<title>InjectionNames.TCP_USERS_CLIENT </title>
<polygon fill="#fb8072" stroke="black" points="268.15,-214.8 23.85,-214.8 23.85,-178.8 268.15,-178.8 268.15,-214.8"/>
<text text-anchor="middle" x="146" y="-192.6" font-family="Times,serif" font-size="14.00">InjectionNames.TCP_USERS_CLIENT </text>
</g>
<!-- ClientsModule&#45;&gt;InjectionNames.TCP_USERS_CLIENT  -->
<g id="edge5" class="edge">
<title>ClientsModule&#45;&gt;InjectionNames.TCP_USERS_CLIENT </title>
<path fill="none" stroke="black" stroke-dasharray="5,2" d="M499.18,-131.8C391.36,-131.8 146,-131.8 146,-131.8 146,-131.8 146,-168.69 146,-168.69"/>
<polygon fill="black" stroke="black" points="142.5,-168.69 146,-178.69 149.5,-168.69 142.5,-168.69"/>
</g>
</g>
</svg>
