<?xml version="1.0" encoding="UTF-8" standalone="no"?>
<!DOCTYPE svg PUBLIC "-//W3C//DTD SVG 1.1//EN"
 "http://www.w3.org/Graphics/SVG/1.1/DTD/svg11.dtd">
<!-- Generated by graphviz version 5.0.0 (20220707.1540)
 -->
<!-- Title: dependencies Pages: 1 -->
<svg width="3582pt" height="247pt"
 viewBox="0.00 0.00 3582.00 246.80" xmlns="http://www.w3.org/2000/svg" xmlns:xlink="http://www.w3.org/1999/xlink">
<g id="graph0" class="graph" transform="scale(1 1) rotate(0) translate(4 242.8)">
<title>dependencies</title>
<polygon fill="white" stroke="transparent" points="-4,4 -4,-242.8 3578,-242.8 3578,4 -4,4"/>
<text text-anchor="middle" x="1787" y="-8.2" font-family="sans-serif" font-size="14.00">dependencies</text>
<g id="clust1" class="cluster">
<title>cluster_ConfigurationModule</title>
<polygon fill="none" stroke="black" stroke-dasharray="1,5" points="8,-32.8 8,-230.8 3566,-230.8 3566,-32.8 8,-32.8"/>
</g>
<g id="clust3" class="cluster">
<title>cluster_ConfigurationModule_imports</title>
<polygon fill="none" stroke="black" points="1688,-40.8 1688,-92.8 1810,-92.8 1810,-40.8 1688,-40.8"/>
</g>
<g id="clust4" class="cluster">
<title>cluster_ConfigurationModule_exports</title>
<polygon fill="none" stroke="black" points="16,-170.8 16,-222.8 3558,-222.8 3558,-170.8 16,-170.8"/>
</g>
<g id="clust6" class="cluster">
<title>cluster_ConfigurationModule_providers</title>
<polygon fill="none" stroke="black" points="1468,-40.8 1468,-92.8 1680,-92.8 1680,-40.8 1468,-40.8"/>
</g>
<!-- LoggingModule -->
<g id="node1" class="node">
<title>LoggingModule</title>
<polygon fill="#8dd3c7" stroke="black" points="1802.49,-84.8 1799.49,-88.8 1778.49,-88.8 1775.49,-84.8 1695.51,-84.8 1695.51,-48.8 1802.49,-48.8 1802.49,-84.8"/>
<text text-anchor="middle" x="1749" y="-62.6" font-family="Times,serif" font-size="14.00">LoggingModule</text>
</g>
<!-- ConfigurationModule -->
<g id="node2" class="node">
<title>ConfigurationModule</title>
<polygon fill="#8dd3c7" stroke="black" points="1730.1,-149.8 1727.1,-153.8 1706.1,-153.8 1703.1,-149.8 1591.9,-149.8 1591.9,-113.8 1730.1,-113.8 1730.1,-149.8"/>
<text text-anchor="middle" x="1661" y="-127.6" font-family="Times,serif" font-size="14.00">ConfigurationModule</text>
</g>
<!-- LoggingModule&#45;&gt;ConfigurationModule -->
<g id="edge1" class="edge">
<title>LoggingModule&#45;&gt;ConfigurationModule</title>
<path fill="none" stroke="black" d="M1712.78,-84.91C1712.78,-84.91 1712.78,-103.79 1712.78,-103.79"/>
<polygon fill="black" stroke="black" points="1709.28,-103.79 1712.78,-113.79 1716.28,-103.79 1709.28,-103.79"/>
</g>
<!-- InjectionNames.API_KEY  -->
<g id="node3" class="node">
<title>InjectionNames.API_KEY </title>
<polygon fill="#fb8072" stroke="black" points="3549.97,-214.8 3380.03,-214.8 3380.03,-178.8 3549.97,-178.8 3549.97,-214.8"/>
<text text-anchor="middle" x="3465" y="-192.6" font-family="Times,serif" font-size="14.00">InjectionNames.API_KEY </text>
</g>
<!-- ConfigurationModule&#45;&gt;InjectionNames.API_KEY  -->
<g id="edge2" class="edge">
<title>ConfigurationModule&#45;&gt;InjectionNames.API_KEY </title>
<path fill="none" stroke="black" stroke-dasharray="5,2" d="M1730.06,-119.8C2060.59,-119.8 3465,-119.8 3465,-119.8 3465,-119.8 3465,-168.55 3465,-168.55"/>
<polygon fill="black" stroke="black" points="3461.5,-168.55 3465,-178.55 3468.5,-168.55 3461.5,-168.55"/>
</g>
<!-- InjectionNames.CONNECTION_STRING  -->
<g id="node4" class="node">
<title>InjectionNames.CONNECTION_STRING </title>
<polygon fill="#fb8072" stroke="black" points="3362.19,-214.8 3101.81,-214.8 3101.81,-178.8 3362.19,-178.8 3362.19,-214.8"/>
<text text-anchor="middle" x="3232" y="-192.6" font-family="Times,serif" font-size="14.00">InjectionNames.CONNECTION_STRING </text>
</g>
<!-- ConfigurationModule&#45;&gt;InjectionNames.CONNECTION_STRING  -->
<g id="edge3" class="edge">
<title>ConfigurationModule&#45;&gt;InjectionNames.CONNECTION_STRING </title>
<path fill="none" stroke="black" stroke-dasharray="5,2" d="M1730.28,-124.8C2033.9,-124.8 3232,-124.8 3232,-124.8 3232,-124.8 3232,-168.63 3232,-168.63"/>
<polygon fill="black" stroke="black" points="3228.5,-168.63 3232,-178.63 3235.5,-168.63 3228.5,-168.63"/>
</g>
<!-- InjectionNames.GRPC_CONFIG  -->
<g id="node5" class="node">
<title>InjectionNames.GRPC_CONFIG </title>
<polygon fill="#fb8072" stroke="black" points="3083.82,-214.8 2876.18,-214.8 2876.18,-178.8 3083.82,-178.8 3083.82,-214.8"/>
<text text-anchor="middle" x="2980" y="-192.6" font-family="Times,serif" font-size="14.00">InjectionNames.GRPC_CONFIG </text>
</g>
<!-- ConfigurationModule&#45;&gt;InjectionNames.GRPC_CONFIG  -->
<g id="edge4" class="edge">
<title>ConfigurationModule&#45;&gt;InjectionNames.GRPC_CONFIG </title>
<path fill="none" stroke="black" stroke-dasharray="5,2" d="M1730.06,-129.8C2001.45,-129.8 2980,-129.8 2980,-129.8 2980,-129.8 2980,-168.49 2980,-168.49"/>
<polygon fill="black" stroke="black" points="2976.5,-168.49 2980,-178.49 2983.5,-168.49 2976.5,-168.49"/>
</g>
<!-- InjectionNames.GRPC_PORT  -->
<g id="node6" class="node">
<title>InjectionNames.GRPC_PORT </title>
<polygon fill="#fb8072" stroke="black" points="2858.49,-214.8 2667.51,-214.8 2667.51,-178.8 2858.49,-178.8 2858.49,-214.8"/>
<text text-anchor="middle" x="2763" y="-192.6" font-family="Times,serif" font-size="14.00">InjectionNames.GRPC_PORT </text>
</g>
<!-- ConfigurationModule&#45;&gt;InjectionNames.GRPC_PORT  -->
<g id="edge5" class="edge">
<title>ConfigurationModule&#45;&gt;InjectionNames.GRPC_PORT </title>
<path fill="none" stroke="black" stroke-dasharray="5,2" d="M1730.35,-134.8C1972.1,-134.8 2763,-134.8 2763,-134.8 2763,-134.8 2763,-168.53 2763,-168.53"/>
<polygon fill="black" stroke="black" points="2759.5,-168.53 2763,-178.53 2766.5,-168.53 2759.5,-168.53"/>
</g>
<!-- InjectionNames.HASH_ROUNDS  -->
<g id="node7" class="node">
<title>InjectionNames.HASH_ROUNDS </title>
<polygon fill="#fb8072" stroke="black" points="2649.32,-214.8 2434.68,-214.8 2434.68,-178.8 2649.32,-178.8 2649.32,-214.8"/>
<text text-anchor="middle" x="2542" y="-192.6" font-family="Times,serif" font-size="14.00">InjectionNames.HASH_ROUNDS </text>
</g>
<!-- ConfigurationModule&#45;&gt;InjectionNames.HASH_ROUNDS  -->
<g id="edge6" class="edge">
<title>ConfigurationModule&#45;&gt;InjectionNames.HASH_ROUNDS </title>
<path fill="none" stroke="black" stroke-dasharray="5,2" d="M1730.13,-139.8C1937.82,-139.8 2542,-139.8 2542,-139.8 2542,-139.8 2542,-168.76 2542,-168.76"/>
<polygon fill="black" stroke="black" points="2538.5,-168.76 2542,-178.76 2545.5,-168.76 2538.5,-168.76"/>
</g>
<!-- InjectionNames.HEALTH_CHECK_DOCUMENTATION_ADDRESS  -->
<g id="node8" class="node">
<title>InjectionNames.HEALTH_CHECK_DOCUMENTATION_ADDRESS </title>
<polygon fill="#fb8072" stroke="black" points="2416.24,-214.8 1993.76,-214.8 1993.76,-178.8 2416.24,-178.8 2416.24,-214.8"/>
<text text-anchor="middle" x="2205" y="-192.6" font-family="Times,serif" font-size="14.00">InjectionNames.HEALTH_CHECK_DOCUMENTATION_ADDRESS </text>
</g>
<!-- ConfigurationModule&#45;&gt;InjectionNames.HEALTH_CHECK_DOCUMENTATION_ADDRESS  -->
<g id="edge7" class="edge">
<title>ConfigurationModule&#45;&gt;InjectionNames.HEALTH_CHECK_DOCUMENTATION_ADDRESS </title>
<path fill="none" stroke="black" stroke-dasharray="5,2" d="M1730.17,-144.8C1876.69,-144.8 2205,-144.8 2205,-144.8 2205,-144.8 2205,-168.61 2205,-168.61"/>
<polygon fill="black" stroke="black" points="2201.5,-168.61 2205,-178.61 2208.5,-168.61 2201.5,-168.61"/>
</g>
<!-- InjectionNames.HEALTH_CHECK_REST_ADDRESS  -->
<g id="node9" class="node">
<title>InjectionNames.HEALTH_CHECK_REST_ADDRESS </title>
<polygon fill="#fb8072" stroke="black" points="1976.09,-214.8 1641.91,-214.8 1641.91,-178.8 1976.09,-178.8 1976.09,-214.8"/>
<text text-anchor="middle" x="1809" y="-192.6" font-family="Times,serif" font-size="14.00">InjectionNames.HEALTH_CHECK_REST_ADDRESS </text>
</g>
<!-- ConfigurationModule&#45;&gt;InjectionNames.HEALTH_CHECK_REST_ADDRESS  -->
<g id="edge8" class="edge">
<title>ConfigurationModule&#45;&gt;InjectionNames.HEALTH_CHECK_REST_ADDRESS </title>
<path fill="none" stroke="black" stroke-dasharray="5,2" d="M1686,-149.91C1686,-149.91 1686,-168.79 1686,-168.79"/>
<polygon fill="black" stroke="black" points="1682.5,-168.79 1686,-178.79 1689.5,-168.79 1682.5,-168.79"/>
</g>
<!-- InjectionNames.PROJECT_NAME  -->
<g id="node10" class="node">
<title>InjectionNames.PROJECT_NAME </title>
<polygon fill="#fb8072" stroke="black" points="1623.48,-214.8 1404.52,-214.8 1404.52,-178.8 1623.48,-178.8 1623.48,-214.8"/>
<text text-anchor="middle" x="1514" y="-192.6" font-family="Times,serif" font-size="14.00">InjectionNames.PROJECT_NAME </text>
</g>
<!-- ConfigurationModule&#45;&gt;InjectionNames.PROJECT_NAME  -->
<g id="edge9" class="edge">
<title>ConfigurationModule&#45;&gt;InjectionNames.PROJECT_NAME </title>
<path fill="none" stroke="black" stroke-dasharray="5,2" d="M1607.72,-149.91C1607.72,-149.91 1607.72,-168.79 1607.72,-168.79"/>
<polygon fill="black" stroke="black" points="1604.22,-168.79 1607.72,-178.79 1611.22,-168.79 1604.22,-168.79"/>
</g>
<!-- InjectionNames.REST_PORT  -->
<g id="node11" class="node">
<title>InjectionNames.REST_PORT </title>
<polygon fill="#fb8072" stroke="black" points="1386.15,-214.8 1197.85,-214.8 1197.85,-178.8 1386.15,-178.8 1386.15,-214.8"/>
<text text-anchor="middle" x="1292" y="-192.6" font-family="Times,serif" font-size="14.00">InjectionNames.REST_PORT </text>
</g>
<!-- ConfigurationModule&#45;&gt;InjectionNames.REST_PORT  -->
<g id="edge10" class="edge">
<title>ConfigurationModule&#45;&gt;InjectionNames.REST_PORT </title>
<path fill="none" stroke="black" stroke-dasharray="5,2" d="M1591.59,-144.8C1484.7,-144.8 1292,-144.8 1292,-144.8 1292,-144.8 1292,-168.61 1292,-168.61"/>
<polygon fill="black" stroke="black" points="1288.5,-168.61 1292,-178.61 1295.5,-168.61 1288.5,-168.61"/>
</g>
<!-- InjectionNames.SECRETS_FROM_ENV  -->
<g id="node12" class="node">
<title>InjectionNames.SECRETS_FROM_ENV </title>
<polygon fill="#fb8072" stroke="black" points="1179.99,-214.8 926.01,-214.8 926.01,-178.8 1179.99,-178.8 1179.99,-214.8"/>
<text text-anchor="middle" x="1053" y="-192.6" font-family="Times,serif" font-size="14.00">InjectionNames.SECRETS_FROM_ENV </text>
</g>
<!-- ConfigurationModule&#45;&gt;InjectionNames.SECRETS_FROM_ENV  -->
<g id="edge11" class="edge">
<title>ConfigurationModule&#45;&gt;InjectionNames.SECRETS_FROM_ENV </title>
<path fill="none" stroke="black" stroke-dasharray="5,2" d="M1591.85,-139.8C1432.49,-139.8 1053,-139.8 1053,-139.8 1053,-139.8 1053,-168.76 1053,-168.76"/>
<polygon fill="black" stroke="black" points="1049.5,-168.76 1053,-178.76 1056.5,-168.76 1049.5,-168.76"/>
</g>
<!-- InjectionNames.SWAGGER_CONFIG  -->
<g id="node13" class="node">
<title>InjectionNames.SWAGGER_CONFIG </title>
<polygon fill="#fb8072" stroke="black" points="907.97,-214.8 668.03,-214.8 668.03,-178.8 907.97,-178.8 907.97,-214.8"/>
<text text-anchor="middle" x="788" y="-192.6" font-family="Times,serif" font-size="14.00">InjectionNames.SWAGGER_CONFIG </text>
</g>
<!-- ConfigurationModule&#45;&gt;InjectionNames.SWAGGER_CONFIG  -->
<g id="edge12" class="edge">
<title>ConfigurationModule&#45;&gt;InjectionNames.SWAGGER_CONFIG </title>
<path fill="none" stroke="black" stroke-dasharray="5,2" d="M1591.77,-134.8C1385.28,-134.8 788,-134.8 788,-134.8 788,-134.8 788,-168.53 788,-168.53"/>
<polygon fill="black" stroke="black" points="784.5,-168.53 788,-178.53 791.5,-168.53 784.5,-168.53"/>
</g>
<!-- InjectionNames.TCP_CONFIG  -->
<g id="node14" class="node">
<title>InjectionNames.TCP_CONFIG </title>
<polygon fill="#fb8072" stroke="black" points="650.43,-214.8 453.57,-214.8 453.57,-178.8 650.43,-178.8 650.43,-214.8"/>
<text text-anchor="middle" x="552" y="-192.6" font-family="Times,serif" font-size="14.00">InjectionNames.TCP_CONFIG </text>
</g>
<!-- ConfigurationModule&#45;&gt;InjectionNames.TCP_CONFIG  -->
<g id="edge13" class="edge">
<title>ConfigurationModule&#45;&gt;InjectionNames.TCP_CONFIG </title>
<path fill="none" stroke="black" stroke-dasharray="5,2" d="M1591.63,-129.8C1348.84,-129.8 552,-129.8 552,-129.8 552,-129.8 552,-168.49 552,-168.49"/>
<polygon fill="black" stroke="black" points="548.5,-168.49 552,-178.49 555.5,-168.49 548.5,-168.49"/>
</g>
<!-- InjectionNames.TCP_PORT  -->
<g id="node15" class="node">
<title>InjectionNames.TCP_PORT </title>
<polygon fill="#fb8072" stroke="black" points="436.1,-214.8 255.9,-214.8 255.9,-178.8 436.1,-178.8 436.1,-214.8"/>
<text text-anchor="middle" x="346" y="-192.6" font-family="Times,serif" font-size="14.00">InjectionNames.TCP_PORT </text>
</g>
<!-- ConfigurationModule&#45;&gt;InjectionNames.TCP_PORT  -->
<g id="edge14" class="edge">
<title>ConfigurationModule&#45;&gt;InjectionNames.TCP_PORT </title>
<path fill="none" stroke="black" stroke-dasharray="5,2" d="M1591.69,-124.8C1320.47,-124.8 346,-124.8 346,-124.8 346,-124.8 346,-168.63 346,-168.63"/>
<polygon fill="black" stroke="black" points="342.5,-168.63 346,-178.63 349.5,-168.63 342.5,-168.63"/>
</g>
<!-- InjectionNames.USE_SWAGGER  -->
<g id="node16" class="node">
<title>InjectionNames.USE_SWAGGER </title>
<polygon fill="#fb8072" stroke="black" points="238.3,-214.8 23.7,-214.8 23.7,-178.8 238.3,-178.8 238.3,-214.8"/>
<text text-anchor="middle" x="131" y="-192.6" font-family="Times,serif" font-size="14.00">InjectionNames.USE_SWAGGER </text>
</g>
<!-- ConfigurationModule&#45;&gt;InjectionNames.USE_SWAGGER  -->
<g id="edge15" class="edge">
<title>ConfigurationModule&#45;&gt;InjectionNames.USE_SWAGGER </title>
<path fill="none" stroke="black" stroke-dasharray="5,2" d="M1591.79,-119.8C1293.27,-119.8 131,-119.8 131,-119.8 131,-119.8 131,-168.55 131,-168.55"/>
<polygon fill="black" stroke="black" points="127.5,-168.55 131,-178.55 134.5,-168.55 127.5,-168.55"/>
</g>
<!-- SecretManagerService -->
<g id="node17" class="node">
<title>SecretManagerService</title>
<ellipse fill="#fdb462" stroke="black" cx="1574" cy="-66.8" rx="98.38" ry="18"/>
<text text-anchor="middle" x="1574" y="-62.6" font-family="Times,serif" font-size="14.00">SecretManagerService</text>
</g>
<!-- SecretManagerService&#45;&gt;ConfigurationModule -->
<g id="edge16" class="edge">
<title>SecretManagerService&#45;&gt;ConfigurationModule</title>
<path fill="none" stroke="black" d="M1632.2,-81.55C1632.2,-81.55 1632.2,-103.39 1632.2,-103.39"/>
<polygon fill="black" stroke="black" points="1628.7,-103.39 1632.2,-113.39 1635.7,-103.39 1628.7,-103.39"/>
</g>
</g>
</svg>
