<?xml version="1.0" encoding="UTF-8" standalone="no"?>
<!DOCTYPE svg PUBLIC "-//W3C//DTD SVG 1.1//EN"
 "http://www.w3.org/Graphics/SVG/1.1/DTD/svg11.dtd">
<!-- Generated by graphviz version 5.0.0 (20220707.1540)
 -->
<!-- Title: dependencies Pages: 1 -->
<svg width="3226pt" height="247pt"
 viewBox="0.00 0.00 3226.00 246.80" xmlns="http://www.w3.org/2000/svg" xmlns:xlink="http://www.w3.org/1999/xlink">
<g id="graph0" class="graph" transform="scale(1 1) rotate(0) translate(4 242.8)">
<title>dependencies</title>
<polygon fill="white" stroke="transparent" points="-4,4 -4,-242.8 3222,-242.8 3222,4 -4,4"/>
<text text-anchor="middle" x="1609" y="-8.2" font-family="sans-serif" font-size="14.00">dependencies</text>
<g id="clust1" class="cluster">
<title>cluster_ConfigurationModule</title>
<polygon fill="none" stroke="black" stroke-dasharray="1,5" points="8,-32.8 8,-230.8 3210,-230.8 3210,-32.8 8,-32.8"/>
</g>
<g id="clust4" class="cluster">
<title>cluster_ConfigurationModule_exports</title>
<polygon fill="none" stroke="black" points="16,-170.8 16,-222.8 3202,-222.8 3202,-170.8 16,-170.8"/>
</g>
<g id="clust3" class="cluster">
<title>cluster_ConfigurationModule_imports</title>
<polygon fill="none" stroke="black" points="1541,-40.8 1541,-92.8 1663,-92.8 1663,-40.8 1541,-40.8"/>
</g>
<g id="clust6" class="cluster">
<title>cluster_ConfigurationModule_providers</title>
<polygon fill="none" stroke="black" points="1321,-40.8 1321,-92.8 1533,-92.8 1533,-40.8 1321,-40.8"/>
</g>
<!-- LoggingModule -->
<g id="node1" class="node">
<title>LoggingModule</title>
<polygon fill="#8dd3c7" stroke="black" points="1655.49,-84.8 1652.49,-88.8 1631.49,-88.8 1628.49,-84.8 1548.51,-84.8 1548.51,-48.8 1655.49,-48.8 1655.49,-84.8"/>
<text text-anchor="middle" x="1602" y="-62.6" font-family="Times,serif" font-size="14.00">LoggingModule</text>
</g>
<!-- ConfigurationModule -->
<g id="node2" class="node">
<title>ConfigurationModule</title>
<polygon fill="#8dd3c7" stroke="black" points="1583.1,-149.8 1580.1,-153.8 1559.1,-153.8 1556.1,-149.8 1444.9,-149.8 1444.9,-113.8 1583.1,-113.8 1583.1,-149.8"/>
<text text-anchor="middle" x="1514" y="-127.6" font-family="Times,serif" font-size="14.00">ConfigurationModule</text>
</g>
<!-- LoggingModule&#45;&gt;ConfigurationModule -->
<g id="edge1" class="edge">
<title>LoggingModule&#45;&gt;ConfigurationModule</title>
<path fill="none" stroke="black" d="M1565.78,-84.91C1565.78,-84.91 1565.78,-103.79 1565.78,-103.79"/>
<polygon fill="black" stroke="black" points="1562.28,-103.79 1565.78,-113.79 1569.28,-103.79 1562.28,-103.79"/>
</g>
<!-- InjectionNames.API_KEY  -->
<g id="node3" class="node">
<title>InjectionNames.API_KEY </title>
<polygon fill="#fb8072" stroke="black" points="3193.97,-214.8 3024.03,-214.8 3024.03,-178.8 3193.97,-178.8 3193.97,-214.8"/>
<text text-anchor="middle" x="3109" y="-192.6" font-family="Times,serif" font-size="14.00">InjectionNames.API_KEY </text>
</g>
<!-- ConfigurationModule&#45;&gt;InjectionNames.API_KEY  -->
<g id="edge2" class="edge">
<title>ConfigurationModule&#45;&gt;InjectionNames.API_KEY </title>
<path fill="none" stroke="black" stroke-dasharray="5,2" d="M1583.3,-119.8C1889.87,-119.8 3109,-119.8 3109,-119.8 3109,-119.8 3109,-168.55 3109,-168.55"/>
<polygon fill="black" stroke="black" points="3105.5,-168.55 3109,-178.55 3112.5,-168.55 3105.5,-168.55"/>
</g>
<!-- InjectionNames.CONNECTION_STRING  -->
<g id="node4" class="node">
<title>InjectionNames.CONNECTION_STRING </title>
<polygon fill="#fb8072" stroke="black" points="3006.19,-214.8 2745.81,-214.8 2745.81,-178.8 3006.19,-178.8 3006.19,-214.8"/>
<text text-anchor="middle" x="2876" y="-192.6" font-family="Times,serif" font-size="14.00">InjectionNames.CONNECTION_STRING </text>
</g>
<!-- ConfigurationModule&#45;&gt;InjectionNames.CONNECTION_STRING  -->
<g id="edge3" class="edge">
<title>ConfigurationModule&#45;&gt;InjectionNames.CONNECTION_STRING </title>
<path fill="none" stroke="black" stroke-dasharray="5,2" d="M1583.41,-125.8C1860.96,-125.8 2876,-125.8 2876,-125.8 2876,-125.8 2876,-168.52 2876,-168.52"/>
<polygon fill="black" stroke="black" points="2872.5,-168.52 2876,-178.52 2879.5,-168.52 2872.5,-168.52"/>
</g>
<!-- InjectionNames.GRPC_CONFIG  -->
<g id="node5" class="node">
<title>InjectionNames.GRPC_CONFIG </title>
<polygon fill="#fb8072" stroke="black" points="2727.82,-214.8 2520.18,-214.8 2520.18,-178.8 2727.82,-178.8 2727.82,-214.8"/>
<text text-anchor="middle" x="2624" y="-192.6" font-family="Times,serif" font-size="14.00">InjectionNames.GRPC_CONFIG </text>
</g>
<!-- ConfigurationModule&#45;&gt;InjectionNames.GRPC_CONFIG  -->
<g id="edge4" class="edge">
<title>ConfigurationModule&#45;&gt;InjectionNames.GRPC_CONFIG </title>
<path fill="none" stroke="black" stroke-dasharray="5,2" d="M1583.44,-131.8C1826.44,-131.8 2624,-131.8 2624,-131.8 2624,-131.8 2624,-168.69 2624,-168.69"/>
<polygon fill="black" stroke="black" points="2620.5,-168.69 2624,-178.69 2627.5,-168.69 2620.5,-168.69"/>
</g>
<!-- InjectionNames.HASH_ROUNDS  -->
<g id="node6" class="node">
<title>InjectionNames.HASH_ROUNDS </title>
<polygon fill="#fb8072" stroke="black" points="2502.32,-214.8 2287.68,-214.8 2287.68,-178.8 2502.32,-178.8 2502.32,-214.8"/>
<text text-anchor="middle" x="2395" y="-192.6" font-family="Times,serif" font-size="14.00">InjectionNames.HASH_ROUNDS </text>
</g>
<!-- ConfigurationModule&#45;&gt;InjectionNames.HASH_ROUNDS  -->
<g id="edge5" class="edge">
<title>ConfigurationModule&#45;&gt;InjectionNames.HASH_ROUNDS </title>
<path fill="none" stroke="black" stroke-dasharray="5,2" d="M1583.13,-137.8C1790.82,-137.8 2395,-137.8 2395,-137.8 2395,-137.8 2395,-168.78 2395,-168.78"/>
<polygon fill="black" stroke="black" points="2391.5,-168.78 2395,-178.78 2398.5,-168.78 2391.5,-168.78"/>
</g>
<!-- InjectionNames.HEALTH_CHECK_DOCUMENTATION_ADDRESS  -->
<g id="node7" class="node">
<title>InjectionNames.HEALTH_CHECK_DOCUMENTATION_ADDRESS </title>
<polygon fill="#fb8072" stroke="black" points="2269.24,-214.8 1846.76,-214.8 1846.76,-178.8 2269.24,-178.8 2269.24,-214.8"/>
<text text-anchor="middle" x="2058" y="-192.6" font-family="Times,serif" font-size="14.00">InjectionNames.HEALTH_CHECK_DOCUMENTATION_ADDRESS </text>
</g>
<!-- ConfigurationModule&#45;&gt;InjectionNames.HEALTH_CHECK_DOCUMENTATION_ADDRESS  -->
<g id="edge6" class="edge">
<title>ConfigurationModule&#45;&gt;InjectionNames.HEALTH_CHECK_DOCUMENTATION_ADDRESS </title>
<path fill="none" stroke="black" stroke-dasharray="5,2" d="M1583.17,-143.8C1729.69,-143.8 2058,-143.8 2058,-143.8 2058,-143.8 2058,-168.56 2058,-168.56"/>
<polygon fill="black" stroke="black" points="2054.5,-168.56 2058,-178.56 2061.5,-168.56 2054.5,-168.56"/>
</g>
<!-- InjectionNames.HEALTH_CHECK_REST_ADDRESS  -->
<g id="node8" class="node">
<title>InjectionNames.HEALTH_CHECK_REST_ADDRESS </title>
<polygon fill="#fb8072" stroke="black" points="1829.09,-214.8 1494.91,-214.8 1494.91,-178.8 1829.09,-178.8 1829.09,-214.8"/>
<text text-anchor="middle" x="1662" y="-192.6" font-family="Times,serif" font-size="14.00">InjectionNames.HEALTH_CHECK_REST_ADDRESS </text>
</g>
<!-- ConfigurationModule&#45;&gt;InjectionNames.HEALTH_CHECK_REST_ADDRESS  -->
<g id="edge7" class="edge">
<title>ConfigurationModule&#45;&gt;InjectionNames.HEALTH_CHECK_REST_ADDRESS </title>
<path fill="none" stroke="black" stroke-dasharray="5,2" d="M1539,-149.91C1539,-149.91 1539,-168.79 1539,-168.79"/>
<polygon fill="black" stroke="black" points="1535.5,-168.79 1539,-178.79 1542.5,-168.79 1535.5,-168.79"/>
</g>
<!-- InjectionNames.PROJECT_NAME  -->
<g id="node9" class="node">
<title>InjectionNames.PROJECT_NAME </title>
<polygon fill="#fb8072" stroke="black" points="1476.48,-214.8 1257.52,-214.8 1257.52,-178.8 1476.48,-178.8 1476.48,-214.8"/>
<text text-anchor="middle" x="1367" y="-192.6" font-family="Times,serif" font-size="14.00">InjectionNames.PROJECT_NAME </text>
</g>
<!-- ConfigurationModule&#45;&gt;InjectionNames.PROJECT_NAME  -->
<g id="edge8" class="edge">
<title>ConfigurationModule&#45;&gt;InjectionNames.PROJECT_NAME </title>
<path fill="none" stroke="black" stroke-dasharray="5,2" d="M1460.72,-149.91C1460.72,-149.91 1460.72,-168.79 1460.72,-168.79"/>
<polygon fill="black" stroke="black" points="1457.22,-168.79 1460.72,-178.79 1464.22,-168.79 1457.22,-168.79"/>
</g>
<!-- InjectionNames.SECRETS_FROM_ENV  -->
<g id="node10" class="node">
<title>InjectionNames.SECRETS_FROM_ENV </title>
<polygon fill="#fb8072" stroke="black" points="1239.99,-214.8 986.01,-214.8 986.01,-178.8 1239.99,-178.8 1239.99,-214.8"/>
<text text-anchor="middle" x="1113" y="-192.6" font-family="Times,serif" font-size="14.00">InjectionNames.SECRETS_FROM_ENV </text>
</g>
<!-- ConfigurationModule&#45;&gt;InjectionNames.SECRETS_FROM_ENV  -->
<g id="edge9" class="edge">
<title>ConfigurationModule&#45;&gt;InjectionNames.SECRETS_FROM_ENV </title>
<path fill="none" stroke="black" stroke-dasharray="5,2" d="M1444.61,-143.8C1329.84,-143.8 1113,-143.8 1113,-143.8 1113,-143.8 1113,-168.56 1113,-168.56"/>
<polygon fill="black" stroke="black" points="1109.5,-168.56 1113,-178.56 1116.5,-168.56 1109.5,-168.56"/>
</g>
<!-- InjectionNames.SWAGGER_CONFIG  -->
<g id="node11" class="node">
<title>InjectionNames.SWAGGER_CONFIG </title>
<polygon fill="#fb8072" stroke="black" points="967.97,-214.8 728.03,-214.8 728.03,-178.8 967.97,-178.8 967.97,-214.8"/>
<text text-anchor="middle" x="848" y="-192.6" font-family="Times,serif" font-size="14.00">InjectionNames.SWAGGER_CONFIG </text>
</g>
<!-- ConfigurationModule&#45;&gt;InjectionNames.SWAGGER_CONFIG  -->
<g id="edge10" class="edge">
<title>ConfigurationModule&#45;&gt;InjectionNames.SWAGGER_CONFIG </title>
<path fill="none" stroke="black" stroke-dasharray="5,2" d="M1444.92,-137.8C1274.55,-137.8 848,-137.8 848,-137.8 848,-137.8 848,-168.78 848,-168.78"/>
<polygon fill="black" stroke="black" points="844.5,-168.78 848,-178.78 851.5,-168.78 844.5,-168.78"/>
</g>
<!-- InjectionNames.TCP_CONFIG  -->
<g id="node12" class="node">
<title>InjectionNames.TCP_CONFIG </title>
<polygon fill="#fb8072" stroke="black" points="710.43,-214.8 513.57,-214.8 513.57,-178.8 710.43,-178.8 710.43,-214.8"/>
<text text-anchor="middle" x="612" y="-192.6" font-family="Times,serif" font-size="14.00">InjectionNames.TCP_CONFIG </text>
</g>
<!-- ConfigurationModule&#45;&gt;InjectionNames.TCP_CONFIG  -->
<g id="edge11" class="edge">
<title>ConfigurationModule&#45;&gt;InjectionNames.TCP_CONFIG </title>
<path fill="none" stroke="black" stroke-dasharray="5,2" d="M1444.72,-131.8C1233.5,-131.8 612,-131.8 612,-131.8 612,-131.8 612,-168.69 612,-168.69"/>
<polygon fill="black" stroke="black" points="608.5,-168.69 612,-178.69 615.5,-168.69 608.5,-168.69"/>
</g>
<!-- InjectionNames.USERS_REST_PORT  -->
<g id="node13" class="node">
<title>InjectionNames.USERS_REST_PORT </title>
<polygon fill="#fb8072" stroke="black" points="495.72,-214.8 256.28,-214.8 256.28,-178.8 495.72,-178.8 495.72,-214.8"/>
<text text-anchor="middle" x="376" y="-192.6" font-family="Times,serif" font-size="14.00">InjectionNames.USERS_REST_PORT </text>
</g>
<!-- ConfigurationModule&#45;&gt;InjectionNames.USERS_REST_PORT  -->
<g id="edge12" class="edge">
<title>ConfigurationModule&#45;&gt;InjectionNames.USERS_REST_PORT </title>
<path fill="none" stroke="black" stroke-dasharray="5,2" d="M1444.95,-125.8C1198.39,-125.8 376,-125.8 376,-125.8 376,-125.8 376,-168.52 376,-168.52"/>
<polygon fill="black" stroke="black" points="372.5,-168.52 376,-178.52 379.5,-168.52 372.5,-168.52"/>
</g>
<!-- InjectionNames.USE_SWAGGER  -->
<g id="node14" class="node">
<title>InjectionNames.USE_SWAGGER </title>
<polygon fill="#fb8072" stroke="black" points="238.3,-214.8 23.7,-214.8 23.7,-178.8 238.3,-178.8 238.3,-214.8"/>
<text text-anchor="middle" x="131" y="-192.6" font-family="Times,serif" font-size="14.00">InjectionNames.USE_SWAGGER </text>
</g>
<!-- ConfigurationModule&#45;&gt;InjectionNames.USE_SWAGGER  -->
<g id="edge13" class="edge">
<title>ConfigurationModule&#45;&gt;InjectionNames.USE_SWAGGER </title>
<path fill="none" stroke="black" stroke-dasharray="5,2" d="M1444.94,-119.8C1165.19,-119.8 131,-119.8 131,-119.8 131,-119.8 131,-168.55 131,-168.55"/>
<polygon fill="black" stroke="black" points="127.5,-168.55 131,-178.55 134.5,-168.55 127.5,-168.55"/>
</g>
<!-- SecretManagerService -->
<g id="node15" class="node">
<title>SecretManagerService</title>
<ellipse fill="#fdb462" stroke="black" cx="1427" cy="-66.8" rx="98.38" ry="18"/>
<text text-anchor="middle" x="1427" y="-62.6" font-family="Times,serif" font-size="14.00">SecretManagerService</text>
</g>
<!-- SecretManagerService&#45;&gt;ConfigurationModule -->
<g id="edge14" class="edge">
<title>SecretManagerService&#45;&gt;ConfigurationModule</title>
<path fill="none" stroke="black" d="M1485.2,-81.55C1485.2,-81.55 1485.2,-103.39 1485.2,-103.39"/>
<polygon fill="black" stroke="black" points="1481.7,-103.39 1485.2,-113.39 1488.7,-103.39 1481.7,-103.39"/>
</g>
</g>
</svg>
